<svg width="70" height="70" viewBox="0 0 70 70" fill="none" xmlns="http://www.w3.org/2000/svg">
<circle cx="35" cy="35" r="35" fill="#DCFAF8"/>
<g clip-path="url(#clip0_27_732)">
<path fill-rule="evenodd" clip-rule="evenodd" d="M32.5964 20.156C29.326 20.7817 26.6418 22.164 24.4247 24.3637C20.0463 28.7081 18.798 35.1789 21.2161 40.9965C22.2416 43.4639 24.4014 46.031 26.7627 47.5891C28.207 48.5421 29.5659 49.1396 31.4205 49.6372C32.5682 49.9452 33.0302 49.9926 34.9484 49.9995C36.7823 50.006 37.3587 49.9561 38.3567 49.7041C40.2734 49.2201 41.684 48.6081 43.1957 47.6045C46.4912 45.4167 48.6906 42.2809 49.6743 38.368C50.1169 36.6078 50.1069 33.3983 49.6535 31.6383C48.9115 28.7587 47.6835 26.557 45.6656 24.4885C43.679 22.4522 41.4514 21.169 38.604 20.4208C36.9775 19.9935 34.1068 19.8669 32.5964 20.156ZM32.8792 24.8863C32.3481 24.9978 31.2734 25.3998 30.4913 25.7796C25.2083 28.3446 23.1851 34.572 25.9475 39.7653L26.3753 40.5694L33.4489 33.4856L40.5223 26.402L39.9673 26.0705C37.9046 24.8386 35.2323 24.392 32.8792 24.8863ZM36.7756 36.7856C33.0014 40.5664 29.9133 43.7282 29.9133 43.8117C29.9133 43.9968 31.4728 44.7225 32.6033 45.0635C33.8842 45.4498 36.4275 45.4152 37.7763 44.9931C39.659 44.404 40.8883 43.6619 42.2651 42.2827C43.6439 40.9017 44.3872 39.6657 44.9688 37.7868C45.3862 36.438 45.4208 33.8813 45.0386 32.6189C44.6878 31.4602 43.975 29.9113 43.7925 29.9113C43.7075 29.9113 40.55 33.0047 36.7756 36.7856Z" fill="#16DBCC"/>
</g>
<defs>
<clipPath id="clip0_27_732">
<rect width="30" height="30" fill="white" transform="translate(20 20)"/>
</clipPath>
</defs>
</svg>
