<svg width="70" height="70" viewBox="0 0 70 70" fill="none" xmlns="http://www.w3.org/2000/svg">
<circle cx="35" cy="35" r="35" fill="#E7EDFF"/>
<g clip-path="url(#clip0_27_718)">
<path fill-rule="evenodd" clip-rule="evenodd" d="M32.151 20.181C26.3893 21.3577 21.9828 25.4964 20.3879 31.2291C20.0155 32.5674 19.8759 35.8862 20.1265 37.4406C20.4747 39.6007 21.5266 42.1315 22.7788 43.8216C23.6812 45.0398 25.5072 46.8008 26.6563 47.5611C27.8712 48.3648 29.7288 49.2045 31.1018 49.5705C32.6354 49.9793 35.7182 50.13 37.3137 49.8742C41.4311 49.214 45.1444 46.8334 47.5093 43.3374C48.2631 42.223 49.2277 40.0414 49.5729 38.6699C50.015 36.913 50.1395 34.6087 49.8249 34C49.4616 33.2969 48.8973 32.9234 48.1989 32.9242C47.3532 32.9249 46.7614 33.3403 46.2078 34.3218C44.6728 37.0437 41.4286 38.5005 38.3316 37.8586C36.8539 37.5523 36.5952 37.6202 36.2424 38.4072C35.8086 39.3745 34.282 40.9015 33.2057 41.4449C32.0975 42.0045 30.7831 42.2702 29.7809 42.1371C28.8957 42.0196 28.6723 41.8554 28.6723 41.3221C28.6723 40.6913 29.021 40.5133 30.2867 40.4984C31.6833 40.4821 32.7686 40.0302 33.7353 39.0629C34.3678 38.4299 35.151 37.1309 35.151 36.7145C35.151 36.6062 34.9172 36.2909 34.6316 36.0138C33.8594 35.265 32.9521 33.7905 32.6342 32.7686C32.2215 31.4416 32.2537 29.4666 32.7091 28.1753C33.3673 26.3094 34.8342 24.6805 36.6971 23.7471C37.5664 23.3116 37.9099 22.9639 38.0893 22.3381C38.2705 21.7054 38.0446 20.9887 37.4987 20.4648C37.049 20.0334 37.0372 20.031 35.1049 20.0027C33.9048 19.9852 32.7767 20.0533 32.151 20.181ZM26.0682 30.5587C25.4862 30.9138 25.2858 31.2755 25.2858 31.9709C25.2858 32.7619 26.0619 33.5129 26.8794 33.5129C28.4954 33.5129 29.1029 31.3887 27.727 30.5492C27.1481 30.196 26.6582 30.1988 26.0682 30.5587Z" fill="#396AFF"/>
</g>
<defs>
<clipPath id="clip0_27_718">
<rect width="30" height="30" fill="white" transform="translate(20 20)"/>
</clipPath>
</defs>
</svg>
