<svg width="70" height="70" viewBox="0 0 70 70" fill="none" xmlns="http://www.w3.org/2000/svg">
<circle cx="35" cy="35" r="35" fill="#FFF5D9"/>
<path d="M49.7509 22.4505L48.5494 21.249C48.299 20.9984 47.9194 20.9298 47.5973 21.0759L41.1439 23.9248C40.8899 24.0403 40.7091 24.2727 40.6594 24.5466C40.61 24.8213 40.6974 25.1022 40.8946 25.2994L45.7006 30.1054C45.8978 30.3025 46.1787 30.3899 46.4533 30.3406C46.7273 30.2908 46.9597 30.1101 47.0752 29.856L49.924 23.4027C50.0701 23.0805 50.0015 22.701 49.7509 22.4505Z" fill="#FFBB38"/>
<path d="M26.4885 39.7056L21.7454 44.4486C20.7515 45.4425 20.7515 47.0593 21.7454 48.0531L22.9469 49.2546C23.9407 50.2485 25.5575 50.2485 26.5514 49.2546L31.2944 44.5115L26.4885 39.7056ZM25.9589 46.2545C25.6269 46.5865 25.0894 46.5865 24.7574 46.2545C24.4254 45.9224 24.4254 45.3849 24.7574 45.053L27.0975 42.7129C27.4296 42.3808 27.967 42.3808 28.2989 42.7129C28.631 43.045 28.631 43.5823 28.2989 43.9144L25.9589 46.2545Z" fill="#FFBB38"/>
<path d="M34.899 40.907L30.093 36.101C29.4306 35.4386 28.3524 35.4386 27.69 36.101C27.0276 36.7634 27.0276 37.8416 27.69 38.504L32.496 43.31C33.1583 43.9724 34.2366 43.9724 34.899 43.31C35.5614 42.6477 35.5614 41.5694 34.899 40.907Z" fill="#FFBB38"/>
<path d="M43.2977 30.1053L40.8947 27.7023L34.2982 34.2988C33.6346 33.6352 32.5589 33.6352 31.8952 34.2988L31.2944 34.8996L36.1004 39.7056L36.7012 39.1048C37.3648 38.4411 37.3648 37.3654 36.7012 36.7018L43.2977 30.1053Z" fill="#FFBB38"/>
<path d="M48.509 41.2977C47.1297 39.9184 45.4712 39.6219 43.5682 39.9619L39.7057 36.0998L38.7833 37.0222C39.087 38.1635 38.7917 39.4165 37.9021 40.3061L37.3026 40.9056L39.9608 43.5636C39.6928 45.0634 39.7179 46.3355 40.6494 47.7153C41.7243 49.3081 43.6057 50.2134 45.5766 49.9421C45.9025 49.8973 46.1746 49.6713 46.2794 49.3596C46.3841 49.0478 46.3033 48.7036 46.0708 48.471L44.9024 47.3046V44.9019H47.3076L48.4695 46.0639C48.7026 46.2969 49.0477 46.3771 49.3597 46.2715C49.6718 46.1659 49.8971 45.8925 49.9409 45.5659C50.1484 44.0206 49.6428 42.4309 48.509 41.2977Z" fill="#FFBB38"/>
<path d="M31.0272 27.4175C31.3644 25.5344 31.0914 23.8778 29.6914 22.4768C28.7389 21.5244 27.4645 21 26.103 21C25.8738 21 25.647 21.015 25.4231 21.0446C25.0962 21.088 24.8226 21.3135 24.7169 21.6259C24.6112 21.9381 24.6919 22.2834 24.9251 22.5165L26.0984 23.6782V26.0976H23.6837L22.519 24.9166C22.2864 24.684 21.9419 24.6035 21.63 24.7085C21.3183 24.8134 21.0928 25.0859 21.048 25.4118C20.7891 27.2967 21.6058 29.2115 23.2721 30.3364C24.6571 31.2695 25.9368 31.2926 27.4255 31.0242L30.0944 33.6976L30.6942 33.0978C31.5838 32.2082 32.8367 31.913 33.978 32.2166L34.9 31.2946L31.0272 27.4175Z" fill="#FFBB38"/>
</svg>
