<svg width="70" height="70" viewBox="0 0 70 70" fill="none" xmlns="http://www.w3.org/2000/svg">
<circle cx="35" cy="35" r="35" fill="#FFE0EB"/>
<path fill-rule="evenodd" clip-rule="evenodd" d="M34.689 20.2014C34.5181 20.3736 34.4889 20.8572 34.4889 23.5192V26.6356L31.7931 29.1512L29.0974 31.6667H26.4745H23.8517L22.0087 33.8631C19.9069 36.3678 19.9326 36.3314 20.0369 36.6622C20.0943 36.8446 20.2542 36.9192 20.6494 36.9481L21.1841 36.9872L21.2162 43.3333C21.2455 49.1181 21.2674 49.6937 21.4634 49.8397C21.6322 49.9655 24.5419 50 34.9982 50C45.4545 50 48.3643 49.9655 48.5331 49.8397C48.729 49.6937 48.7509 49.1181 48.7802 43.3333L48.8123 36.9872L49.347 36.9481C49.7434 36.9191 49.902 36.8447 49.9601 36.6608C50.0622 36.3368 50.1304 36.434 48.0031 33.8782L46.1623 31.6667H43.5251H40.888L38.1977 29.149L35.5075 26.6313V25.6899V24.7485L38.404 24.714L41.3005 24.6795L41.3355 22.5006C41.3667 20.5646 41.3462 20.3038 41.152 20.1609C40.9912 20.0426 40.1346 20 37.9113 20C35.3336 20 34.8597 20.0296 34.689 20.2014ZM34.3539 32.2294C33.1502 32.5499 32.4492 33.4573 32.4547 34.6879C32.4641 36.8191 34.7373 38.0331 36.4616 36.8276C38.7607 35.2201 37.0595 31.509 34.3539 32.2294ZM34.1451 33.3282C32.9769 34.0454 33.1545 35.6774 34.4618 36.2382C35.0289 36.4814 35.763 36.278 36.1985 35.7569C36.6411 35.2272 36.7275 34.7958 36.514 34.1791C36.1743 33.1976 35.0281 32.7859 34.1451 33.3282ZM28.8869 42.9406V48.9744H29.3338H29.7807L29.7476 42.9808L29.7145 36.9872L29.3007 36.9471L28.8869 36.9068V42.9406ZM40.3032 37.0086C40.2565 37.0555 40.2183 39.7671 40.2183 43.0342V48.9744H40.6639H41.1095V42.9487V36.9231H40.7488C40.5503 36.9231 40.3498 36.9615 40.3032 37.0086ZM33.2775 39.7497C33.1101 40.2808 33.3935 40.3846 35.0093 40.3846C36.3679 40.3846 36.5301 40.3601 36.6484 40.1374C36.7207 40.0015 36.7452 39.7996 36.7029 39.6887C36.6386 39.52 36.3607 39.4872 34.9931 39.4872C33.4593 39.4872 33.3552 39.5031 33.2775 39.7497ZM23.8431 40.6977C23.8044 40.7992 23.7925 40.9868 23.8168 41.1144C23.8562 41.3212 24.0352 41.35 25.473 41.3819C26.9586 41.415 27.091 41.3988 27.1612 41.1756C27.2033 41.0426 27.2015 40.8388 27.1574 40.7232C27.0891 40.5438 26.8444 40.5128 25.4954 40.5128C24.2352 40.5128 23.8992 40.5504 23.8431 40.6977ZM42.8151 40.6938C42.7755 40.7976 42.7631 40.9868 42.7875 41.1144C42.8276 41.3237 42.9914 41.3462 44.4853 41.3462H46.1386V40.9615V40.5769L44.5128 40.541C43.1758 40.5115 42.8742 40.5386 42.8151 40.6938ZM32.0733 42.8141C31.9859 42.9787 31.95 44.1045 31.972 45.9896L32.0062 48.9103L32.4837 48.95L32.9611 48.9899V46.2256V43.4615H33.725H34.4889V46.2179V48.9744H34.9982H35.5075V46.2179V43.4615H36.2714H37.0353V46.2179V48.9744H37.4831H37.931L37.8969 45.8013L37.8629 42.6282L35.0358 42.5937C32.3262 42.5606 32.2032 42.5699 32.0733 42.8141ZM23.9422 44.5997C23.8485 44.6596 23.7912 44.8462 23.8149 45.0145C23.8576 45.3191 23.8653 45.3205 25.5112 45.3205C27.0015 45.3205 27.169 45.2978 27.2087 45.09C27.3046 44.5888 27.0202 44.4871 25.5293 44.4891C24.75 44.4903 24.0358 44.54 23.9422 44.5997ZM42.8971 44.6733C42.8127 44.7758 42.7635 44.9632 42.7877 45.09C42.8274 45.2977 42.9949 45.3205 44.4835 45.3205C45.9721 45.3205 46.1395 45.2977 46.1792 45.09C46.2752 44.5881 45.9912 44.4872 44.4835 44.4872C43.3861 44.4872 43.0146 44.5308 42.8971 44.6733Z" fill="#FF82AC"/>
</svg>
