<svg width="14" height="16" viewBox="0 0 14 16" fill="none" xmlns="http://www.w3.org/2000/svg">
<path fill-rule="evenodd" clip-rule="evenodd" d="M11.3154 0.0318872C11.2043 0.0673985 11.0878 0.171692 10.3116 0.930844C9.82861 1.40318 9.28878 1.93548 9.11195 2.11376L8.79046 2.43789L10.1543 3.80259C10.9044 4.55317 11.5301 5.16726 11.5446 5.16726C11.5592 5.16726 12.0997 4.63709 12.7457 3.98913C13.8719 2.85957 13.9221 2.80524 13.9613 2.67112C14.0129 2.49455 14.0129 2.38055 13.9612 2.2041C13.9221 2.07088 13.8742 2.01809 12.9551 1.09555C12.2852 0.423154 11.9545 0.109116 11.8737 0.0687375C11.7238 -0.00617336 11.484 -0.0220105 11.3154 0.0318872ZM4.29193 6.96363C2.00221 9.25458 0.283132 10.994 0.283132 11.0199C0.283132 11.0448 0.219428 11.6253 0.141566 12.3098C0.0637047 12.9944 0 13.6031 0 13.6626C0 13.88 0.118993 14 0.334611 14C0.464003 14 2.88785 13.7305 3.0115 13.7024C3.08607 13.6854 3.976 12.8018 8.14019 8.60992L11.0517 5.67912L9.68926 4.31587C8.93993 3.56609 8.32098 2.95264 8.31377 2.95264C8.30659 2.95264 6.49676 4.75758 4.29193 6.96363Z" fill="white"/>
<line x1="0.5" y1="14.5769" x2="13.5" y2="14.5769" stroke="white" stroke-linecap="round"/>
</svg>
