<svg width="89" height="90" viewBox="0 0 89 90" fill="none" xmlns="http://www.w3.org/2000/svg">
<rect width="89" height="90" rx="44.5" fill="#FFF5D9"/>
<path fill-rule="evenodd" clip-rule="evenodd" d="M41.4365 22.0454C41.0524 22.0819 39.7607 22.196 38.566 22.2989C37.3714 22.4017 36.2525 22.5608 36.0799 22.6526C35.907 22.7444 35.6495 23.042 35.5075 23.3142C35.2816 23.7474 35.2802 24.0109 35.4967 25.43C35.7249 26.9255 36.2635 29.0024 36.8582 30.6796C36.992 31.0562 37.3098 31.5188 37.5647 31.7076C38.0111 32.0381 38.1353 32.0431 40.9544 31.8431C44.6717 31.5793 48.3283 31.5793 52.0456 31.8431C55.9153 32.1176 55.7187 32.2544 56.8168 28.5281C57.0546 27.7214 57.3621 26.3692 57.5 25.5228C57.7144 24.208 57.7158 23.9006 57.5093 23.4106C57.1831 22.6365 56.9214 22.529 54.7933 22.2954C53.0202 22.1008 42.8545 21.9105 41.4365 22.0454ZM45.9238 24.7484C45.8086 24.8626 45.7143 25.2132 45.7143 25.5275C45.7143 26.0421 45.6642 26.0989 45.2099 26.0989C44.4655 26.0989 43.8881 26.6242 44.0273 27.1745C44.139 27.616 44.5499 27.8234 45.3214 27.8279C45.649 27.83 45.7143 27.9252 45.7143 28.4017C45.7143 29.0597 45.9762 29.3886 46.5 29.3886C47.0238 29.3886 47.2857 29.0597 47.2857 28.4017C47.2857 27.8663 47.3234 27.8303 47.8844 27.8303C48.9383 27.8303 49.4181 26.9064 48.6436 26.3685C48.4302 26.2203 48.0374 26.0989 47.7706 26.0989C47.3384 26.0989 47.2857 26.0367 47.2857 25.5275C47.2857 24.8696 47.0238 24.5406 46.5 24.5406C46.2983 24.5406 46.039 24.6341 45.9238 24.7484ZM34.2706 30.2627C33.1479 32.0199 32.1174 35.1701 31.7284 38.0352C31.4193 40.3103 31.6186 46.3271 32.0841 48.7809C32.7371 52.2228 33.8214 56.0313 34.2425 56.3627C34.4672 56.5395 38.0129 57.2158 39.1586 57.3005C39.8017 57.3481 39.8764 57.3041 40.2471 56.659C40.4659 56.2781 40.6464 55.8883 40.648 55.7929C40.6496 55.6975 40.2775 55.4257 39.8214 55.1888C38.5653 54.5364 36.4797 52.3737 35.7266 50.9424C34.6595 48.9146 34.3546 47.5336 34.2556 44.2791C34.1547 40.9573 34.1765 40.8858 35.5873 39.9257C36.7456 39.1374 38.0936 37.732 38.5592 36.8268C39.2353 35.5128 40.2969 35.2602 41.4541 36.1384C44.78 38.6618 46.8859 39.5578 50.4157 39.9507C52.2022 40.1496 53.3078 40.0892 55.8006 39.6565C57.6503 39.3353 58.1071 39.4522 58.5848 40.3681C58.9483 41.0654 58.8085 46.6169 58.388 48.1749C57.838 50.2128 56.7803 52.0428 55.3356 53.456C54.6054 54.1702 53.6348 54.9492 53.1786 55.1871C52.7225 55.425 52.3504 55.6975 52.352 55.7929C52.3536 55.8883 52.5341 56.2781 52.7529 56.659C53.1239 57.3045 53.1978 57.3481 53.8414 57.2995C55.0971 57.2046 58.5267 56.5603 58.7489 56.3773C59.1472 56.0495 60.2481 52.2829 60.799 49.3627C61.7437 44.3539 61.6821 38.7851 60.6383 34.8427C60.2706 33.4536 59.3367 31.2132 58.7294 30.2627L58.2368 29.4918L57.8293 30.6914C56.9708 33.2195 55.8682 33.8809 53.1402 33.5046C51.3185 33.2532 41.6815 33.2532 39.8598 33.5046C37.1318 33.8809 36.0292 33.2195 35.1707 30.6914L34.7632 29.4918L34.2706 30.2627ZM39.8045 37.8627C39.2685 38.8084 37.9967 40.1673 36.9323 40.9317C36.4326 41.2905 35.9763 41.6506 35.9184 41.7322C35.8604 41.8135 35.8426 42.9599 35.8787 44.2795C35.9898 48.3285 36.6688 50.1948 38.8145 52.3477C40.9646 54.5051 43.6999 55.487 47.0713 55.3118C52.0159 55.0548 55.7271 52.161 56.799 47.7268C57.0733 46.5916 57.3696 41.7522 57.1927 41.295C57.1073 41.0742 56.9528 41.0726 55.9878 41.2839C54.6182 41.5836 50.5625 41.6307 49.0244 41.3649C46.533 40.9341 43.5441 39.67 41.6424 38.2424C41.0271 37.7806 40.4472 37.3559 40.3536 37.2986C40.2599 37.2413 40.0128 37.4951 39.8045 37.8627ZM43.3671 42.9326C42.7869 43.7538 43.1934 45.4911 43.9656 45.4911C44.5291 45.4911 44.8413 45.0067 44.8413 44.1321C44.8413 42.7573 43.9836 42.0596 43.3671 42.9326ZM48.4477 42.8643C48.0629 43.286 48.0533 44.8424 48.433 45.2191C49.1671 45.9469 50.0083 45.1362 49.8613 43.843C49.7211 42.6091 49.0834 42.1676 48.4477 42.8643ZM44.1778 49.1618C43.8715 49.4655 43.9218 50.0708 44.2803 50.3924C44.7573 50.8205 45.8075 51.2049 46.5 51.2049C47.6899 51.2049 49.0317 50.4291 49.0317 49.741C49.0317 48.9224 48.4344 48.7638 47.373 49.3003C46.9962 49.4908 46.6034 49.6466 46.5 49.6466C46.3966 49.6466 46.0038 49.4908 45.627 49.3003C44.8404 48.9026 44.4744 48.8676 44.1778 49.1618ZM41.9099 56.962C41.7955 57.2714 41.5165 57.7531 41.2898 58.0322L40.8776 58.5397L41.5601 59.6191C42.3277 60.833 42.7871 61.0936 44.761 61.4343C46.1827 61.6799 48.0983 61.5348 49.6315 61.065C50.6849 60.7425 50.7748 60.6709 51.4313 59.6326L52.1224 58.5397L51.7102 58.0322C51.4835 57.7531 51.2045 57.2714 51.0901 56.962C50.8499 56.3118 50.8951 56.3196 49.2937 56.6561C48.6214 56.7972 47.3643 56.9127 46.5 56.9127C45.6357 56.9127 44.3786 56.7972 43.7063 56.6561C42.1049 56.3196 42.1501 56.3118 41.9099 56.962ZM38.8611 59.914C38.3984 60.0954 38.381 60.1482 38.381 61.3673C38.381 62.9222 38.5931 63.1852 40.0819 63.4755C41.3485 63.7228 41.6045 63.9694 41.4489 64.7925C41.293 65.6167 41.5254 65.9655 42.65 66.5949C43.1777 66.8901 43.7385 67.3272 43.8961 67.5659C44.135 67.9273 44.3204 68 45.0028 68H45.8227L44.9651 67.091C43.9934 66.0613 42.0743 63.4387 40.6534 61.1987C40.1266 60.3685 39.6159 59.6973 39.5185 59.7074C39.4211 59.7176 39.1253 59.8106 38.8611 59.914ZM52.1772 61.4645C50.7463 63.7038 48.7873 66.3101 47.8179 67.2641L47.0701 68H47.8947C48.5614 68 48.784 67.919 49.055 67.5772C49.2395 67.3446 49.821 66.91 50.347 66.6115C51.4696 65.9747 51.707 65.6161 51.5511 64.7925C51.3955 63.9697 51.6515 63.7228 52.9153 63.4762C54.1476 63.2357 54.4979 62.9104 54.619 61.8937C54.779 60.5508 54.6496 60.1158 54.0235 59.8913C53.7132 59.7801 53.4256 59.6897 53.3844 59.6908C53.3432 59.6916 52.8 60.4898 52.1772 61.4645ZM34.9762 61.3119C32.89 62.0332 31.8587 62.658 31.134 63.639C30.3548 64.6945 30 65.7431 30 66.992V68H35.875H41.7501L41.1729 67.6104C40.3877 67.0806 39.9217 66.4166 39.7958 65.6487C39.6996 65.0616 39.6208 64.9861 38.8829 64.7727C37.9237 64.4954 37.0238 63.6482 36.8991 62.9047C36.8499 62.6122 36.7507 62.012 36.6787 61.5708L36.5476 60.7688L34.9762 61.3119ZM56.2732 61.8101C56.2039 62.4053 56.0876 63.048 56.0148 63.2385C55.7789 63.8551 54.9353 64.5361 54.1127 64.774C53.3795 64.9861 53.3003 65.0623 53.2042 65.6487C53.0784 66.4166 52.6123 67.0806 51.8271 67.6104L51.2499 68H57.125H63V67.0792C63 65.137 61.9784 63.2413 60.4546 62.3558C59.8666 62.014 56.7616 60.7613 56.4258 60.7303C56.4114 60.7289 56.3427 61.215 56.2732 61.8101ZM43.9683 63.1519C43.9683 63.4016 46.4563 66.0892 46.6037 65.9988C46.8389 65.8546 49.0317 63.2988 49.0317 63.1687C49.0317 63.1119 47.8925 63.0654 46.5 63.0654C45.1075 63.0654 43.9683 63.1043 43.9683 63.1519Z" fill="#FFBB38"/>
<path d="M49 42L53 45.5L51.5 51.5L46.5 52.5H43.5L42 42H45H49Z" fill="#FFBB38" stroke="#FFBB38"/>
</svg>
