<svg width="89" height="90" viewBox="0 0 89 90" fill="none" xmlns="http://www.w3.org/2000/svg">
<rect width="89" height="90" rx="44.5" fill="#FFE0EB"/>
<path fill-rule="evenodd" clip-rule="evenodd" d="M54.8 22.315C53.9298 22.6013 52.1456 22.5849 49.9 22.2701C49.2106 22.1735 48.9964 22.2455 48.35 22.7909C47.9376 23.139 47.6 23.571 47.6 23.7511C47.6 23.931 47.964 24.6976 48.409 25.4547L49.2178 26.8309H52.8844C55.5752 26.8309 56.6056 26.7636 56.7558 26.5782C57.0626 26.1996 58.1576 22.523 58.0504 22.2319C57.923 21.8867 55.9494 21.9372 54.8 22.315ZM47.84 28.2864C47.708 28.4198 47.6 28.7655 47.6 29.0546C47.6 30.044 47.7204 30.0654 53.3 30.0654C58.8796 30.0654 59 30.044 59 29.0546C59 28.7655 58.892 28.4198 58.76 28.2864C58.4182 27.9409 48.1818 27.9409 47.84 28.2864ZM47.0966 32.9461C44.638 36.0513 43.0004 39.1089 42.11 42.2565C41.5528 44.2264 41.284 47.2577 41.5424 48.6585C41.6954 49.4879 41.7752 49.5829 42.5046 49.8053C42.99 49.953 44.781 50.0553 47.1 50.0675C50.3316 50.0844 51.0208 50.1431 51.7082 50.4586C53.3074 51.1929 53.9706 52.5354 53.7334 54.5591L53.6154 55.566L54.479 55.0544C54.954 54.7732 57.2162 53.2111 59.506 51.5832C61.7958 49.9555 63.9648 48.4812 64.326 48.3071C65.158 47.906 65.2782 47.374 65.0154 45.2562C64.4824 40.959 62.9022 37.4098 59.6716 33.2537L58.3 31.4893L53.2784 31.4849L48.2568 31.4805L47.0966 32.9461ZM52.9402 38.8857C52.8632 38.9638 52.8 39.1716 52.8 39.3477C52.8 39.5235 52.485 39.9218 52.1 40.2323C50.8626 41.2301 51.2046 42.4002 53 43.3111C53.8716 43.7532 54.0272 43.9893 53.7684 44.4779C53.6122 44.7729 53.417 44.8382 52.9324 44.7579C52.5846 44.7005 52.12 44.6233 51.9 44.5863C51.5916 44.5347 51.4854 44.6471 51.4364 45.0775C51.382 45.557 51.4582 45.653 51.9756 45.7577C52.3898 45.8414 52.5972 46.0145 52.639 46.3112C52.7202 46.8862 53.6602 46.9232 53.7684 46.3555C53.809 46.1424 54.1476 45.6769 54.521 45.3209C54.9408 44.9208 55.2 44.4809 55.2 44.169C55.2 43.4954 54.5354 42.6769 53.5946 42.1918C52.6322 41.6955 52.4684 41.4325 52.8692 41.0272C53.1296 40.7642 53.3118 40.7464 53.8954 40.9275C54.5306 41.1244 54.6286 41.1034 54.8278 40.7268C55.0088 40.3851 54.9824 40.2557 54.687 40.0374C54.4872 39.8896 54.212 39.7687 54.0756 39.7687C53.9394 39.7687 53.799 39.565 53.764 39.3159C53.7006 38.8678 53.211 38.612 52.9402 38.8857ZM64.7866 49.4357C64.614 49.5113 62.3906 51.0548 59.8452 52.8655C57.3 54.6762 54.7214 56.3793 54.1152 56.6504C52.4984 57.3731 50.9646 57.555 46.4744 57.5566C43.1542 57.5581 42.4058 57.5055 42.2022 57.2577C42.0664 57.0923 42.0074 56.8194 42.0714 56.6512C42.1696 56.3924 42.7974 56.3451 46.1438 56.3441C48.3196 56.3435 50.4318 56.2499 50.8372 56.1361C51.2426 56.0223 51.8148 55.6404 52.1086 55.2873C52.5674 54.7362 52.63 54.508 52.5506 53.6739C52.498 53.119 52.2958 52.518 52.0792 52.2724C51.3346 51.4276 50.6152 51.2915 46.8956 51.2915C43.5928 51.2915 43.236 51.2531 41.0392 50.6618C39.1406 50.1507 38.2856 50.0284 36.5 50.0123C33.442 49.9844 32.6284 50.3745 29.7852 53.2322L27.6706 55.3576L28.2288 58.0246C28.5358 59.4915 28.977 61.536 29.2092 62.5678L29.6316 64.4442L40.9746 64.3872L52.3174 64.3304L53.34 63.7939C53.9024 63.4989 57.431 60.6387 61.1812 57.4376C67.5342 52.0154 68 51.5733 68 50.9672C68 50.0331 67.0574 49.2651 65.9346 49.2841C65.4756 49.292 64.959 49.3601 64.7866 49.4357ZM23.1628 53.9173C21.105 54.3903 21 54.4415 21 54.9705C21 55.7031 23.6172 67.7468 23.8236 67.9647C24.0262 68.1784 28.3574 67.3645 28.6796 67.0524C28.7854 66.9499 28.685 66.0621 28.4358 64.8968C28.2028 63.807 27.6952 61.4143 27.3076 59.5798C25.9808 53.2989 26.0506 53.5116 25.3284 53.5396C24.9828 53.553 24.0082 53.723 23.1628 53.9173Z" fill="#FF82AC"/>
<path d="M49 44L54.5 48.5L59 42L52.5 37L49 44Z" fill="#FF82AC" stroke="#FF82AC"/>
<path d="M55.12 40.44C55.01 40.85 54.81 41.16 54.52 41.38C54.22 41.6 53.9 41.76 53.54 41.86L55.93 45.01H54.29L52.61 42.76C52.41 42.5 52.24 42.31 52.08 42.19C51.92 42.07 51.76 42.02 51.59 42.02H51.5V41.19H52.09C52.27 41.19 52.44 41.18 52.61 41.16C52.78 41.14 52.94 41.11 53.08 41.06C53.22 41.01 53.35 40.94 53.46 40.84C53.57 40.74 53.65 40.61 53.71 40.44H51.32L51.62 39.55H53.73C53.67 39.33 53.54 39.16 53.36 39.06C53.17 38.96 52.92 38.91 52.6 38.89H51.32L51.62 38H56.1L55.8 38.89H54.96C55.06 39.09 55.13 39.31 55.17 39.55H56.1L55.8 40.44H55.12Z" fill="#FFE0EB"/>
</svg>
