<svg width="89" height="90" viewBox="0 0 89 90" fill="none" xmlns="http://www.w3.org/2000/svg">
<rect width="89" height="90" rx="44.5" fill="#E7EDFF"/>
<path fill-rule="evenodd" clip-rule="evenodd" d="M35.6982 26.2142C33.7977 27.2145 32.2419 28.135 31.3006 28.8163C31.2122 28.8802 31.516 29.4938 31.9757 30.1798C33.0157 31.7317 33.9947 33.6988 33.9206 34.0878C33.89 34.2491 33.7021 34.4046 33.503 34.4331C33.2043 34.476 33.0329 34.2565 32.5194 33.174C32.1774 32.4531 31.5729 31.3998 31.1763 30.8335C30.4898 29.8536 30.4409 29.819 30.1662 30.1132C30.0073 30.283 28.5551 32.1834 26.9388 34.336L24 38.25L24.55 38.66C26.4305 40.0618 31.7285 43.7623 31.8549 43.7623C31.9383 43.7623 32.3736 43.476 32.8222 43.1263C34.3059 41.9689 34.206 41.1464 34.2564 54.9265L34.3006 67H45.5594H56.8183L56.8625 54.9265C56.9129 41.1464 56.813 41.9689 58.2967 43.1263C58.7453 43.476 59.1963 43.7576 59.2989 43.752C59.569 43.7372 67.0285 38.3656 66.9999 38.2068C66.9867 38.1334 65.57 36.2052 63.8517 33.9221L60.7275 29.7708L60.4065 30.1825C59.7153 31.0688 58.9116 32.938 58.712 34.1231C58.4982 35.3916 58.2383 35.72 57.7614 35.3237C57.1854 34.845 57.9966 31.9689 59.2284 30.1219C59.6063 29.5555 59.9144 29.0427 59.9132 28.9824C59.9069 28.6695 53.4516 25 52.9077 25C52.8066 25 51.583 26.9842 50.1883 29.4093C47.5248 34.0414 47.0465 34.7449 46.3914 34.9941C46.0476 35.1249 45.9891 35.2664 45.9881 35.9691C45.9875 36.4211 45.8357 38.0691 45.6507 39.6311C45.1305 44.0236 44.925 47.374 44.9869 50.4566C45.0376 52.977 45.012 53.298 44.7476 53.465C44.0774 53.8883 44.0111 53.4543 44.0312 48.7873C44.0466 45.2342 44.1397 43.5738 44.504 40.3415C45.0299 35.6778 45.0576 34.9836 44.7177 34.9836C44.2574 34.9836 43.4688 33.8234 40.9403 29.4262C39.5404 26.9919 38.3049 25.0012 38.1947 25.0028C38.0847 25.0043 36.9611 25.5494 35.6982 26.2142ZM39.7999 25.2802C39.7999 25.3398 40.0412 25.8107 40.3361 26.3268C41.3293 28.065 42.9845 28.8712 45.5594 28.8712C48.1507 28.8712 49.7889 28.066 50.8012 26.2946C51.1064 25.7606 51.312 25.2797 51.2582 25.2258C51.2044 25.172 50.823 25.2129 50.4109 25.3169C48.8101 25.7204 45.6695 25.892 43.491 25.6947C42.3353 25.5902 41.1292 25.4298 40.8108 25.3384C40.1416 25.1461 39.7999 25.1265 39.7999 25.2802ZM42.2068 29.432C42.2068 29.4807 42.7575 30.4844 43.4306 31.6625C45.3265 34.9809 45.7652 34.9858 47.6626 31.709C48.3466 30.5278 48.9074 29.5124 48.9091 29.4525C48.9107 29.3926 48.5833 29.4663 48.1814 29.6162C47.6778 29.804 46.8628 29.8889 45.5594 29.8889C44.2561 29.8889 43.4411 29.804 42.9375 29.6162C42.5356 29.4663 42.2068 29.3833 42.2068 29.432ZM37.9876 33.9302C35.6521 34.9922 35.1195 38.1531 36.9569 40.046C39.2227 42.3801 43.1715 40.918 43.3782 37.6683C43.5267 35.3317 41.938 33.6141 39.6279 33.6141C39.0774 33.6141 38.3919 33.7462 37.9876 33.9302ZM38.5018 34.8815C37.8804 35.1525 37.0922 36.0422 36.9417 36.6424C36.5109 38.361 37.8801 40.1475 39.6279 40.1475C41.7267 40.1475 43.1248 37.6919 41.9878 36.003C41.1516 34.7605 39.7864 34.3212 38.5018 34.8815ZM33.5233 35.531C33.4762 35.656 33.4961 36.223 33.5678 36.791C33.6876 37.7425 33.7316 37.8238 34.1269 37.8238C34.4966 37.8238 34.5633 37.7367 34.6083 37.1955C34.6908 36.2059 34.4257 35.4229 33.9863 35.3589C33.7788 35.3286 33.5704 35.406 33.5233 35.531ZM39.234 35.6074C39.167 35.6745 39.1121 35.9876 39.1121 36.3033C39.1121 36.8452 39.0784 36.877 38.5051 36.877C38.1217 36.877 37.861 36.9731 37.7981 37.1375C37.6492 37.5256 38.0567 37.9098 38.6173 37.9098C39.0478 37.9098 39.1121 37.9742 39.1121 38.4052C39.1121 38.9665 39.4959 39.3745 39.8836 39.2254C40.0467 39.1628 40.1437 38.9027 40.1437 38.5281C40.1437 37.962 40.1776 37.9277 40.7884 37.8771C41.3474 37.8308 41.4332 37.7665 41.4332 37.3934C41.4332 37.0216 41.3469 36.9559 40.7982 36.9103C40.2017 36.8607 40.16 36.819 40.1105 36.2217C40.0701 35.7344 39.9757 35.5744 39.7068 35.5358C39.5138 35.5081 39.3011 35.5405 39.234 35.6074ZM44.6568 56.2697C44.3752 56.3835 44.3864 56.9439 44.7082 58.8238C45.059 60.8726 45.0963 60.9754 45.4905 60.9754C46.0175 60.9754 46.0553 60.5842 45.729 58.5138C45.3775 56.2852 45.2548 56.0282 44.6568 56.2697Z" fill="#396AFF"/>
</svg>
