<svg width="16" height="16" viewBox="0 0 16 16" fill="none" xmlns="http://www.w3.org/2000/svg">
<path d="M1.71429 16H14.2857C15.2321 15.9993 15.9993 15.2441 16 14.3124V10.5625C16 10.2517 15.7443 10 15.4286 10C15.1129 10 14.8571 10.2517 14.8571 10.5625V14.3124C14.8571 14.6232 14.6014 14.875 14.2857 14.875H1.71429C1.39856 14.875 1.14286 14.6232 1.14286 14.3124V10.5625C1.14286 10.2517 0.88715 10 0.571429 10C0.255707 10 0 10.2517 0 10.5625V14.3124C0.00071424 15.2441 0.767854 15.9993 1.71429 16Z" fill="#00237A"/>
<path d="M7.99966 12C8.14726 12 8.2893 11.9405 8.39373 11.8343C8.49816 11.7281 8.55665 11.5836 8.55665 11.4335V1.92965L11.0541 4.46976C11.2721 4.68645 11.6209 4.68432 11.8367 4.4648C12.0525 4.24529 12.0547 3.8905 11.8416 3.66887L8.39373 0.162162C8.38885 0.157205 8.38189 0.155789 8.37702 0.150832C8.32967 0.104096 8.27397 0.0658566 8.2134 0.039656L8.21131 0.0389478C8.20644 0.0368233 8.20156 0.0368233 8.19599 0.0354071L8.19669 0.0346991C8.14029 0.0141635 8.08111 0.00212462 8.02123 0C8.00244 0 7.98294 0.00141622 7.96414 0.00354065C7.91749 0.00637317 7.87085 0.0155788 7.82698 0.03045C7.80818 0.0361151 7.78938 0.0424882 7.77128 0.0502785C7.71001 0.0771879 7.65431 0.114719 7.60627 0.162164L4.15841 3.66887C3.94536 3.89052 3.94744 4.24529 4.16328 4.4648C4.37911 4.68432 4.72794 4.68646 4.94586 4.46976L7.44264 1.92965V11.4335C7.44264 11.5836 7.50112 11.7281 7.60556 11.8343C7.71 11.9405 7.85206 12 7.99966 12Z" fill="#00237A"/>
</svg>
