<svg width="15" height="8" viewBox="0 0 15 8" fill="none" xmlns="http://www.w3.org/2000/svg">
<path fill-rule="evenodd" clip-rule="evenodd" d="M0.218619 0.26656C-0.0738802 0.561105 -0.0738802 1.03747 0.218619 1.33129L6.41662 7.55892C6.55324 7.69833 6.71767 7.80933 6.89992 7.88518C7.08217 7.96103 7.27842 8.00014 7.47674 8.00014C7.67507 8.00014 7.87132 7.96103 8.05357 7.88518C8.23581 7.80933 8.40025 7.69833 8.53687 7.55892L14.7806 1.2862C14.9202 1.14383 14.9986 0.955309 15 0.758907C15.0014 0.562504 14.9256 0.37295 14.7881 0.228741C14.7202 0.157303 14.6379 0.100142 14.5463 0.0608001C14.4547 0.0214578 14.3557 0.000771106 14.2555 2.11493e-05C14.1553 -0.000728808 14.0561 0.0184739 13.9638 0.0564401C13.8716 0.0944064 13.7884 0.150328 13.7194 0.220741L8.00662 5.96183C7.9383 6.03159 7.85606 6.08714 7.7649 6.1251C7.67375 6.16306 7.57558 6.18263 7.47637 6.18263C7.37716 6.18263 7.27899 6.16306 7.18783 6.1251C7.09667 6.08714 7.01443 6.03159 6.94612 5.96183L1.27837 0.26656C1.21012 0.196822 1.12794 0.141286 1.03685 0.103335C0.945751 0.065384 0.847642 0.0458126 0.748494 0.0458126C0.649347 0.0458126 0.551236 0.065384 0.46014 0.103335C0.369044 0.141286 0.286869 0.196822 0.218619 0.26656Z" fill="#00237A"/>
</svg>
