<svg width="443" height="456" viewBox="0 0 443 456" fill="none" xmlns="http://www.w3.org/2000/svg">
<path d="M92.8272 31.7308V29.0208L97.8652 31.0533H101.824L102.903 33.7633L108.301 34.7795H110.46L111.899 38.8446V42.5709L112.979 44.6034L114.418 43.9259L117.657 46.6359V48.6684H119.096L120.536 50.7009L124.134 52.7334L122.695 56.7985H125.574L128.093 58.1535L131.691 61.8798V63.2348L128.452 61.8798L126.293 59.1697L124.494 59.8472H122.335L121.975 61.2023L119.816 61.8798L118.377 63.2348L115.498 65.606L114.058 64.5898V71.3648H111.539L109.74 73.3974H106.861L105.422 75.0911L103.983 73.3974H97.8652L96.0659 72.3811V68.3161H92.1075V66.961L89.9484 63.5735L87.0696 61.2023L84.9105 58.831L87.4295 56.7985V53.4109L84.9105 52.7334V49.3459L87.4295 47.9909L88.509 45.9584H83.831L83.4711 43.2484L84.9105 42.5709V40.1996H81.6719V36.4733H84.9105L85.6302 34.4408H87.0696L88.509 31.7308H92.8272Z" fill="#FFF5D9" stroke="#FFC639"/>
<path d="M141.048 65.1365L141.758 64.1055L144.242 65.1365L146.016 67.8856V69.6039H147.791H150.984L154.178 74.415V76.4769L154.888 78.8824L157.018 80.6006L158.082 82.3189L157.018 85.0681L158.792 87.4736L157.018 91.2537L159.147 92.2847L160.211 93.3156H158.792L158.082 94.6902H155.598L151.694 93.3156L150.275 94.3466H147.791L145.306 96.0648L143.532 98.4704L142.467 101.22L142.822 103.281L143.532 105.343L142.822 106.374L141.758 107.062L141.048 108.436L137.854 107.749H136.434L134.305 105.343L133.595 102.594L129.337 100.189L126.852 98.4704V95.7212L124.723 92.6283H118.69V88.1609L116.561 85.0681L116.206 83.3498L113.722 80.6006H111.947V76.4769H113.722L115.141 73.7277L114.431 71.6658V64.4492L116.206 65.8238L120.464 62.0436L122.239 61.3563L122.949 59.9817H124.723L126.497 59.2944L128.627 62.0436L131.821 63.4182L134.305 65.1365H141.048Z" fill="#FFF5D9" stroke="#FFC639"/>
<path d="M109.735 73.6349L111.172 71.5793H114.047L114.765 73.9775L113.328 76.3757H111.532V80.8295H113.328L116.203 83.5703V85.2833L118.358 88.024V92.4778H124.467L126.622 95.5612L126.982 98.6446L129.138 100.015L127.341 101.043L128.06 104.126L129.497 107.209V108.58H127.341L125.185 112.006L122.67 113.376L120.874 112.691L119.077 114.747V116.802L117.64 118.173L115.843 118.858H107.939L105.783 119.886L104.705 121.599L103.627 119.543L102.549 116.802L100.753 116.46L98.5967 115.774H95.0037L93.5664 116.46L91.4106 115.774H86.7397L83.8652 113.376V107.895L87.4583 103.441L94.285 97.2742V90.7648L92.4885 86.311L96.8002 81.1721L100.393 79.1165L104.346 77.4035L105.423 75.6905L106.861 73.6349H109.735Z" fill="#FFF5D9" stroke="#FFC639"/>
<path d="M143.499 109.434L141.344 108.078V106.621L142.781 106.044L143.499 105.026L142.422 102.992V100.958L143.499 98.2456L145.655 95.8722L148.17 94.177H151.044L151.763 93.1599L156.074 94.177H158.23L159.308 93.1599H160.386L163.619 90.4475L164.338 91.4646L165.056 94.177L168.649 97.2284L170.805 98.9237L176.194 99.2627L177.631 99.6018L178.709 101.975L180.146 102.992L181.583 105.705L187.331 107.061L188.769 108.078L190.924 110.451V111.468L189.487 113.503L187.331 114.181L186.613 116.215L184.457 117.571L183.02 119.605V121.301V122.996L181.583 125.03V128.082L180.864 129.777L178.709 131.472V134.184L177.631 135.202L175.835 134.184H172.96L170.445 132.489L169.368 133.506L167.571 132.489L165.056 129.777H162.9L160.386 128.082L159.308 126.386L160.386 124.352L158.23 122.996L155.356 120.623L153.919 118.927L152.841 116.215L149.607 115.198V118.927L148.17 120.623H144.937L143.499 118.927L144.218 115.198V114.181L144.937 112.146V110.451L143.499 109.434Z" fill="#FFF5D9" stroke="#FFC639"/>
<path d="M127.611 100.782L129.408 100.1L133.36 102.487L134.797 105.215L136.593 107.601L138.39 107.26L140.905 108.283V109.988L139.108 111.352L138.39 112.716L136.234 114.761L135.156 115.784L134.797 118.171L133.36 119.535L132.641 121.58V123.967L134.078 125.331V130.445L133.36 132.491L135.156 134.195L136.593 135.559V139.651L138.39 141.355L139.827 145.106V147.152L139.108 149.879L138.03 150.902L136.593 150.561L134.797 151.584L131.923 153.63L129.767 151.584V147.152L128.689 144.765L127.611 145.106L126.893 147.152L125.456 148.174L122.222 144.765V147.152L119.348 148.174L118.27 151.584L116.114 149.879V144.765L113.6 141.696L111.803 138.969L109.647 136.241V133.514L108.21 131.809L107.492 129.081V127.036H102.821L99.2284 125.331L97.7912 123.967V125.672H95.2763L94.1984 123.967V121.58L93.1206 118.171L91.3242 115.784L94.1984 116.466L95.2763 115.784H98.8691L101.025 116.466L102.821 116.807L103.899 119.876L104.977 121.58L106.055 119.876L108.21 118.853H116.114L118.27 118.171L119.348 116.807V114.761L121.144 112.716L122.941 113.397L125.456 112.034L127.611 108.624H129.767V107.26L128.33 104.192L127.611 100.782Z" fill="#FFF5D9" stroke="#FFC639"/>
<path d="M102.868 127.687H107.892V129.393V132.463L109.687 134.168V136.897L111.84 138.944L112.917 141.332L116.146 144.743V150.542L118.659 151.907L119.735 148.495L122.247 147.813V144.743L125.477 148.495L126.913 147.813L127.631 145.425H128.707L129.425 147.813V151.907L131.578 153.953L134.449 152.589L136.962 154.635V157.023L139.115 159.752V162.14L140.55 163.505L138.038 165.551L136.962 167.939L138.038 168.621L144.857 165.551H145.934L148.805 166.575V168.621L145.934 171.009H144.857L143.421 173.056H141.986L139.115 174.42H135.885L134.449 177.149H133.014L131.578 178.855L127.631 180.56L126.195 182.607L124.401 183.63L123.683 186.359L124.401 188.406L125.477 189.771L128.348 191.135L134.449 190.794L135.885 189.771H138.038V195.228H131.578L129.425 195.57V197.275L128.707 199.322L129.425 201.71H133.014L131.937 203.415L130.502 205.803H129.425V210.92L126.195 210.238L124.401 208.873H117.941V210.238V212.284L115.788 213.308V215.013H109.328V213.308L112.917 212.284V205.121H115.788L112.917 201.71L110.404 200.686H106.457L103.945 199.322L104.662 197.957L103.227 196.593L101.073 198.64L99.2791 199.322L98.2024 204.097V209.555L100.356 211.602V218.766L99.2791 220.471L95.6902 221.494L94.2547 222.859V223.882L95.6902 224.906H97.1258V226.611L94.2547 228.658H89.9481V227.293H88.8715L87.0771 224.906L84.9238 223.882L82.4116 221.494L77.7462 218.766L76.3106 216.037V213.308H74.1574L72.0041 211.602L73.0807 209.555V207.509L72.0041 205.803H62.3143L59.8021 204.097L58.3666 201.71L55.4955 202.733H46.5235L43.6524 201.71L40.0636 202.733V200.686L38.6281 197.957V195.911L34.3215 191.817V186.359H33.2449L28.9383 185.677L25.7084 182.607V172.032L23.914 171.009H20.684L17.813 169.304L16.7363 167.598V162.822L18.8896 161.458L20.684 158.047L23.914 155.659L24.6317 154.294L25.7084 150.542L28.9383 149.178L30.7327 146.79L33.2449 148.154L35.757 150.542L36.4748 152.93H40.0636L42.5758 150.542H52.2656L53.3422 146.79L55.4955 144.061H56.5722L59.8021 136.897L62.3143 135.533L65.5442 133.145L67.6975 132.463L69.4919 130.416L70.9274 126.323L72.7218 123.935L73.7985 120.524V118.477L78.1051 115.066L81.335 113.701H84.206L87.0771 116.43H91.3837L93.1781 119.159L94.2547 122.229V123.935L95.6902 126.323H97.8435V123.935L99.6379 126.323L102.868 127.687Z" fill="#FFF5D9" stroke="#FFC639"/>
<path d="M39.7848 204.976V202.579L44.0704 201.894L46.2132 202.579H55.8559L57.9987 201.894L59.4272 203.606L61.57 205.66H71.5698L72.6412 207.715V209.769L71.9269 211.481L74.0697 213.536H75.8554V215.932L77.6411 219.356L82.2838 221.411L84.7838 223.808L86.9266 225.177L88.7122 227.574H89.7836V229.286L92.6407 232.368L91.5693 234.422H89.7836L87.6408 235.792V237.504V246.064H85.1409L81.5695 248.461V250.515L84.0695 251.542H87.6408L85.1409 252.912L84.0695 255.309L81.5695 257.363H79.0696L77.6411 258.39L82.641 260.102V264.896L81.5695 266.608H79.0696L76.5697 265.923L75.8554 268.662V273.456H71.9269L69.427 271.744L66.927 272.429V275.168H64.4271L65.8556 271.059L66.927 266.608L68.7127 264.896L66.927 261.814V260.102L64.4271 258.39V252.912L66.9009 251.528L63.7128 249.83L64.4271 246.064H61.57V243.325L62.9986 241.955H59.4272V246.064H57.2844V248.461L59.4272 250.515V252.912L57.2844 257.363L52.6416 260.102L49.0703 260.787L44.0704 263.526L39.7848 264.896H36.2135L34.0707 263.526L30.8564 260.787L28.3565 260.102L26.5708 257.363L22.6423 255.309L19.071 251.542L16.9282 250.515L15.8568 247.433H13.714L11.9283 244.352L9.42836 241.955V238.873L11.9283 237.161L13.714 238.873H15.8568L17.9996 237.161L20.1424 237.504L24.0709 237.161L28.3565 234.422L29.4279 230.656L31.5707 229.286L32.9992 227.574L29.4279 228.259L28.3565 229.286H25.4994L20.8567 230.656L19.071 232.368H16.9282L13.714 230.656H11.9283L8.35696 229.286L6.57129 226.889L3.35708 224.493L1.21427 222.096L0.5 219.356V216.96L3.35708 215.932L4.42848 212.508V210.454L5.49988 207.715L16.9282 208.057L19.071 210.454H20.8567H24.0709L25.4994 209.084L28.3565 208.057H30.8564L31.5707 206.688H32.285V209.084H36.2135L37.9991 207.715L39.7848 204.976Z" fill="#FFF5D9" stroke="#FFC639"/>
<path d="M144.718 110.831L140.761 108.436L140.401 110.146L138.602 111.515L137.883 112.883L134.645 115.961L134.285 118.355L132.846 119.724L132.127 121.776V124.17L133.566 125.538V130.669L132.846 132.721L136.084 135.8V139.904L137.883 141.614L139.322 145.377V147.429L138.602 150.165L137.523 151.191L136.084 150.849L133.566 152.217L136.444 154.612L136.803 157.006L138.602 159.742V162.137L140.041 163.505L137.523 165.557L136.444 167.951L137.883 168.635L143.998 165.557H145.437L147.955 166.583H149.034L154.071 168.635L155.869 168.293L159.467 169.32L162.345 172.398V176.502L160.906 177.186V179.923L158.747 183.343L157.308 186.422H155.51L154.43 188.816H151.553L150.114 189.842V192.236L151.553 193.262L151.912 195.999L150.473 197.367H149.394V199.419L150.114 200.787V205.576L152.272 206.26L153.711 207.628L155.869 209.338L157.668 209.68L159.107 208.654H160.906V205.918L159.467 203.182H158.387L157.308 200.445L156.949 198.735L155.15 195.999V192.236L157.308 191.21L159.467 190.184H160.906V193.604L162.345 194.289L166.302 193.946L168.82 195.999H173.137L174.575 193.946L176.374 193.262L177.094 192.236H181.77V195.999H183.569L186.087 194.973H190.044L189.325 197.367L190.044 198.735H192.922L193.641 198.051L196.159 194.973L200.476 195.315L202.275 195.999L204.074 197.709L206.592 198.735L209.11 199.419L212.347 202.155H217.384L219.182 203.524L219.542 215.495H225.658L227.096 213.101L228.535 211.049L229.255 208.654L230.334 207.286L229.255 205.576V204.892H231.054L231.413 202.155L229.974 200.445L228.176 199.419L227.816 197.367V195.315L229.615 192.92L230.694 191.894L233.212 191.21L234.291 190.184L236.45 189.158L238.248 187.79L239.687 186.422L241.126 186.08L243.284 186.764L246.522 186.08L247.961 184.711L245.803 183.001L243.644 182.317L241.126 180.607L239.687 179.239V178.213L238.968 176.844H240.766V175.476L238.968 173.766L237.529 172.74L239.687 170.688H243.284V167.609L238.968 164.189L236.09 159.4V158.374H233.212L231.773 157.348L228.535 157.006V158.032L227.456 159.4L226.377 157.348L219.542 157.006L219.182 154.612L218.463 153.244H212.347L210.549 150.165H206.592L201.915 148.797L199.397 147.429L195.08 144.009L191.483 141.956L189.325 139.562L186.806 138.194H183.929L181.41 137.168L178.533 134.773L177.453 135.8L175.655 134.773H172.777L170.259 133.063L169.179 134.089L167.021 132.721L165.222 130.327H162.704L160.186 128.617L159.107 126.906L160.186 124.854L158.387 123.828L155.15 121.092L153.711 119.382L152.632 116.645L149.394 115.619V119.382L147.955 121.092H144.718L143.279 119.382L143.998 115.961V114.593L144.718 112.541V110.831Z" fill="#FFF5D9" stroke="#FFC639"/>
<path d="M90.3987 245.985H88.6114H88.2539V236.031L90.3987 234.658H92.1861L93.2585 232.599L90.3987 229.51V228.823H94.3309L97.1906 226.764V225.048H95.7607L94.3309 224.018V222.988L95.7607 221.615L99.3354 220.586L100.408 218.869V211.661L98.263 209.602V204.11L99.3354 199.305L101.123 198.618L103.268 196.559L104.697 197.932L103.983 199.305L106.485 200.678H110.774L112.919 201.707L115.779 205.14H112.919V212.348L109.345 213.378V214.75L115.779 215.094L116.136 213.378L117.924 212.348V208.915H124.358L126.146 210.288L129.363 210.975V205.826H130.435L132.937 201.707H129.363L128.648 199.305L129.363 197.245V195.529L131.508 195.186H137.942V189.694H135.797L134.367 190.724L128.29 191.067L125.431 189.694L124.358 188.321L123.643 186.261L124.358 183.516L126.146 182.486L127.575 180.426L131.508 178.71L132.937 176.994H134.367L135.797 174.248H139.014L141.874 172.875H143.304L144.734 170.816H145.806L148.666 168.413V166.354H149.381L154.386 168.413L156.173 168.07L159.748 169.099L162.607 172.189V176.307L161.177 176.994V179.74L159.033 183.172L157.603 186.261H155.815L154.743 188.664H151.883L150.453 189.694V192.097L151.883 193.126L152.241 195.872L150.811 197.245H149.738V199.305L150.453 200.678V205.483L152.598 206.169L154.028 207.542L156.173 209.259L157.96 209.602L159.39 208.572H161.177V205.826L159.748 203.08H158.675L157.603 200.334L157.245 198.618L155.458 195.872V192.097L159.748 190.037H161.177V193.47L162.607 194.156L166.539 193.813L169.042 195.872H173.331L174.761 193.813L176.549 193.126L177.263 192.097H181.911V195.872H183.698L186.2 194.843H190.132L189.417 197.245L190.132 198.618H192.992L196.209 194.843L200.499 195.186L202.286 195.872L204.074 197.588L206.576 198.618L209.078 199.305L212.295 202.051H217.3L219.087 203.424L219.445 216.123L216.942 217.153H208.363L207.291 216.467L205.861 215.437H202.644L201.929 219.213V221.615H205.861L208.006 223.331H209.078L210.866 224.704V226.421L208.006 228.823L205.861 231.226L204.074 230.883L203.716 234.658L201.929 235.345L200.141 236.718L199.784 238.091H196.209L195.137 238.777L194.065 240.837V241.867L192.635 244.269H191.205L190.132 245.642V248.731L188.702 249.761V254.566L186.2 255.596L185.843 254.566L183.698 253.537L181.553 250.791H178.336V252.507L175.119 251.82L174.404 250.448L172.616 251.477H170.829L169.399 249.418L168.684 249.761H166.182L164.395 250.448L160.105 251.82L157.245 252.507H155.815L154.743 251.477H152.241L150.096 252.507L149.024 254.566L145.806 255.253H143.304L139.729 254.223L137.585 253.537L139.729 251.477V249.761H134.01L129.72 250.448L129.363 252.507L127.218 254.566L126.503 257.656L121.498 257.999L120.069 259.372L117.924 257.656L116.851 254.566L115.779 255.253H108.987L105.412 253.537H103.268L101.48 251.477L97.5481 250.448L94.3309 249.761L92.1861 247.358V244.612L90.3987 245.985Z" fill="#FFF5D9" stroke="#FFC639"/>
<path d="M238.163 158.066H236.014V159.09L238.879 163.867L243.175 167.28V170.351H239.595L237.447 172.399L238.879 173.423L240.669 174.788V176.494H238.879L239.595 177.859V178.883L241.027 180.248L243.533 181.954L246.04 182.637L247.83 184.343L246.398 185.708L243.175 186.39L241.027 185.708L239.595 186.049L238.163 187.414L236.372 188.779L234.224 189.803L233.15 190.827L230.644 191.509L229.57 192.533L227.779 194.922V197.311L228.137 199.017L229.928 200.041L231.36 202.089L231.002 204.477H237.089L238.521 203.112L239.595 203.795L241.743 205.501L244.608 206.525L245.324 208.914H247.83L249.62 205.842L251.052 204.477L252.485 207.207H253.917L257.139 205.501H261.794L263.942 204.136V200.723H267.881L270.387 202.43L271.461 204.477L273.252 205.842L274.684 207.89L276.116 207.549L276.832 206.525V205.842L277.906 203.112L280.771 203.454H283.277L284.709 202.089V197.652L290.08 193.898L291.154 192.533H295.809V189.462L299.031 188.779L300.463 187.073L300.105 186.049L297.241 184.002L295.809 182.295V181.272L301.179 177.859L301.895 174.788H302.97L303.686 173.081L301.895 170.351L299.031 173.081L297.241 173.764H290.796L289.364 174.788L285.067 173.764L283.635 171.375H282.203L280.771 173.764H279.696L276.116 171.375H275.4L268.955 169.669L266.807 171.375L264.3 170.351V167.962L262.51 166.597L261.078 167.962L259.288 168.304H256.423V167.962L253.917 166.597L252.843 165.232L251.411 165.573L248.188 163.526L247.114 161.82L247.472 159.431H246.04L241.385 156.701L239.595 157.042L238.163 158.066Z" fill="#FFF5D9" stroke="#FFC639"/>
<path d="M64.998 280.083V275.286H67.5013V272.546L70.0045 271.86L72.5078 273.573H76.4415V268.777L77.1567 266.036L79.6599 266.721H82.1632L83.236 265.008V260.212L78.2295 258.499L79.6599 257.471H82.1632L84.6664 255.416L85.7392 253.018L88.2425 251.647H84.6664L82.1632 250.619V248.564L85.7392 246.166H88.2425V245.823H90.7457L92.1761 244.453V247.193L94.3218 249.592L101.474 251.305L103.262 253.36H105.408L108.984 255.073H115.778L116.851 254.388L117.924 257.471L120.069 259.184L121.5 257.814L126.506 257.471L127.222 254.388L129.367 252.332L129.725 250.277L134.016 249.592H139.738V251.305L137.592 253.36L143.314 255.073H145.817L149.036 254.388L150.108 252.332L152.254 251.305H154.757L155.83 252.332H157.261L166.201 249.592H168.704L169.419 249.249L170.85 251.305H172.638L174.426 250.277L175.141 251.647L178.359 252.332V250.619H181.578L183.723 253.36L185.869 254.388L186.584 256.444L182.651 259.87L184.439 262.61L184.796 264.666L183.723 266.721L186.584 268.434V271.518H183.723V273.573H185.511V274.944L183.723 276.314V278.37L185.869 279.74L188.73 283.166V286.592H185.869L184.796 285.222H183.723L183.008 287.277V290.703L181.578 291.731V296.87L179.79 296.527H178.002L176.571 295.157V292.759L175.856 291.046V286.935L176.571 286.25L175.856 284.537L174.068 282.138H172.638V283.851H170.134L168.704 283.166L166.201 282.481L165.843 281.453H163.34L162.625 282.138H160.837L159.764 280.425L158.333 278.712H154.4L151.896 278.027V281.796L150.466 285.222V286.592L148.678 287.62L145.46 286.592L144.744 287.277L142.956 291.046L145.46 294.129V295.157L143.671 296.527L142.956 297.555L141.526 298.926L140.095 299.611L139.738 301.666H137.592L137.235 300.981L136.519 300.296L135.447 300.639L133.658 303.037L131.87 304.407H129.725L129.01 305.778V308.518H127.579L126.506 311.259H122.215L121.142 314V316.398H119.712L116.851 315.713L115.421 316.398L111.129 315.028H110.056L108.984 317.083L110.056 318.796V322.222H104.692L103.62 323.935H101.832L100.759 322.907L98.6131 323.935L97.8978 325.991L95.3946 326.676V329.074L93.6066 328.046H91.4609L90.0305 329.074V331.472L91.4609 333.528H93.6066L93.249 337.297L92.1761 338.324L89.3153 342.436H84.6664L83.5936 343.806L82.5208 344.491L81.0903 342.093L78.9447 339.352V335.926L77.5143 334.556L76.4415 332.158V328.732L75.3686 325.991V324.278L74.6534 320.852V318.796L73.5806 316.398V314.343L72.1502 311.944V309.889L70.7198 307.491L71.0774 305.778L69.2893 302.352V298.24L67.5013 296.87V284.537L64.998 280.083Z" fill="#FFF5D9" stroke="#FFC639"/>
<path d="M83.1078 343.683L82.0309 344.376L81.6719 346.455H83.1078V347.494L84.1848 349.919L85.2618 351.304V353.729L86.6977 355.461L87.7747 354.075H88.8517L89.5697 353.382V343.683L88.8517 342.298H84.1848L83.1078 343.683Z" fill="#FFF5D9" stroke="#FFC639"/>
<path d="M86.9375 356.013V355.328L88.007 353.957H89.0765L89.7895 352.93V343.681L89.433 341.968L91.9285 338.2L92.9979 337.172L93.3544 333.404H91.2155L89.7895 331.349V328.951L91.2155 327.923H93.3544L95.1369 328.951V326.553L97.6324 325.868L98.3454 323.812L100.484 322.785L101.554 323.812H103.336L104.406 322.099H109.753V318.674L108.684 316.961L109.753 314.906H110.823L115.101 316.276L116.527 315.591L119.379 316.276H120.805V313.878L121.874 311.138H126.152L127.222 308.397H128.648V305.657L129.361 304.286H131.5L133.282 302.916L135.065 300.518L136.134 300.176L136.847 300.861L137.204 301.546H138.986L139.343 302.916V308.397L138.986 309.425L138.63 312.165L140.412 313.878L139.699 314.906L139.343 315.933L137.204 316.961L136.847 318.331L137.204 320.044V325.525L136.847 328.951H135.421V331.006H136.847L139.343 332.034V334.774L138.63 336.829L136.847 337.515H133.282L132.569 338.2V342.995L131.5 345.051V347.106L132.926 348.819L133.282 350.874L131.143 351.902L127.222 351.559L127.935 353.615L128.648 354.985L127.222 356.698V358.753L127.935 359.781L128.648 361.494L129.361 361.836V365.262L130.074 363.549L132.569 363.206H134.708L136.847 363.549V367.317H133.282L132.569 365.262H131.143L130.074 366.289L129.717 367.66L130.787 368.687V370.743L131.143 371.77L133.639 371.428L135.778 369.372L138.63 371.428L142.551 369.715L143.977 369.372L145.403 369.715H146.829L147.185 371.085L147.898 372.798L149.324 373.483H151.463L152.533 375.538V378.279H155.385V378.964L153.246 381.362V384.445L151.107 384.788L149.324 386.158L147.185 384.788H145.403L143.264 384.445L142.551 385.473L141.482 387.528H139.343L139.699 390.954L138.63 392.324V394.379L141.838 395.407V397.12V398.832L138.273 399.175L137.56 400.203H132.213L129.717 401.23L128.291 403.286H126.152L124.37 401.23H121.874L120.448 400.203H118.309L116.527 399.175L113.318 398.147L112.249 396.434L109.397 395.064L107.614 393.009L105.475 391.296L104.049 389.241L99.0584 386.5L97.9889 383.76H97.2759V378.621L96.5629 376.224V373.483L95.4934 371.428V370.4L93.3544 368.687V364.234L91.2155 363.206V360.466L88.72 357.04L86.9375 356.013Z" fill="#FFE0EB" stroke="#FF658E"/>
<path d="M100.018 388.992L99.6602 386.614L104.308 389.332L105.738 391.37L107.883 393.069L109.671 395.108L112.531 396.467L113.961 398.165L116.821 399.185L118.608 400.204H120.753L122.183 401.223L122.898 403.602L120.753 404.961L121.826 407.679H123.971L124.686 410.057L126.831 410.397L127.904 412.775L127.546 415.154L128.976 418.211V420.59L130.049 422.628L131.836 423.648L133.624 422.628H134.696L135.054 425.007V431.802L135.769 434.52L138.272 434.86L137.556 437.238L135.054 438.257V439.956L133.624 442.674L134.696 445.053V446.412L135.054 447.771V450.489L133.624 452.867L130.764 450.489L128.976 447.771H127.546L126.831 445.053L124.686 441.995L122.898 439.956V436.898L121.826 434.86V433.84H122.898L121.826 429.084V427.725L120.753 426.705L119.681 423.308L117.893 420.59V419.57L116.821 416.513L114.676 415.154L113.961 412.435V410.397L110.743 405.64L108.955 401.223H107.525L105.38 398.505L103.95 395.447L100.018 388.992Z" fill="#FFE0EB" stroke="#FF658E"/>
<path d="M301.393 162.844L298.859 161.148L299.583 159.453V155.385L300.669 154.028V152.333L301.393 149.621L303.203 149.96L304.651 148.943L307.547 147.926H311.891V151.655L313.339 152.672L312.615 155.385V159.792L311.891 160.809L310.805 161.487L307.185 161.826L305.737 162.844H301.393Z" fill="#FFF5D9" stroke="#FFC639"/>
<path d="M360.618 156.875V166.859L363.495 165.138L367.451 165.482L369.25 163.761H372.846L375.723 165.482H385.074L385.793 164.449L388.67 164.105L389.39 161.351L390.828 160.318L391.188 158.253L395.144 155.498L397.661 155.843L399.46 153.089H401.618L402.337 152.056L406.293 151.712L408.091 150.334H410.968L413.126 149.99L414.565 147.925H418.88L420.319 149.302L418.88 153.089V155.843L419.959 158.253V160.318L417.442 159.974L414.205 160.662L412.407 162.728L410.968 163.072L409.53 165.138L409.889 170.302L414.205 168.236L417.442 165.826L422.117 161.351L425.354 160.318H427.872L430.749 159.63L432.547 160.318L433.626 161.351L435.064 161.695L436.503 163.416H437.942V160.318L436.143 158.941L435.424 157.22L435.064 154.466L436.143 152.744L437.942 151.023L439.74 150.679L441.898 149.302V144.826L441.178 143.105L439.02 142.072L437.582 142.416H435.424L435.064 140.351L433.626 140.007L432.547 138.63L431.468 138.285L428.591 139.318L428.95 137.941L430.029 136.564V134.843L428.591 131.744L426.433 130.023L425.714 129.334L426.433 126.925L425.714 126.236H424.275L423.915 125.548H418.521L418.161 126.236L416.363 126.925L415.284 128.302L412.766 128.99L410.968 130.367L408.091 130.023L406.293 128.99H404.135L402.696 127.613L398.74 126.925L396.582 127.613L396.223 131.056L393.705 133.121L391.547 135.187L388.67 135.531L387.951 136.564L384.355 137.597L382.197 137.253L381.118 138.285L377.521 140.351V141.728H375.364L375.004 143.449L372.486 145.859L371.048 146.203V148.613L368.89 150.679L364.215 151.367H363.136L360.618 152.4H357.741L355.583 151.367L354.145 154.81L355.583 156.875H360.618Z" fill="#FFF5D9" stroke="#FFC639"/>
<path d="M408.079 165.037H409.509L409.867 170.208L408.079 171.242V172.621L406.649 174.69L408.079 178.827L409.509 180.55L407.364 182.964L406.292 183.653L405.934 186.066L404.504 186.411L403.431 188.135L402.359 189.514L401.644 189.858L400.571 190.548V188.479L399.499 187.445H398.069L396.639 188.135L394.851 189.169H393.421L390.561 188.135H388.416L386.986 189.169V191.927L384.841 193.995H381.623L383.053 191.582V190.203L380.908 189.169L381.623 186.411L383.768 185.032L385.913 182.619L388.058 183.308L390.561 180.895L391.991 178.482L392.706 177.103L394.851 174L397.354 172.276H398.069L402.359 168.484L408.079 165.037Z" fill="#FFF5D9" stroke="#FFC639"/>
<path d="M381.063 194.554L381.774 193.874H384.976L387.11 191.834V189.114L388.533 188.093H390.668L393.514 189.114H395.293L398.139 187.413H399.562L400.629 188.433V190.134L399.562 193.874L402.052 195.574L402.408 196.254L401.341 199.315L400.273 200.675L399.562 202.035L398.139 203.395L396.716 205.776L396.004 208.496L394.581 210.536V212.236L393.87 214.617H390.312L388.889 213.937H386.399L383.909 213.597H382.486L381.063 212.917V211.896H376.082V205.096L378.217 202.715V199.315L379.284 197.955L380.351 196.254L381.063 194.554Z" fill="#FFF5D9" stroke="#FFC639"/>
<path d="M374.393 206.281L375.817 206.967V211.762H380.8V212.79L382.224 213.475L381.512 214.503V219.641L382.224 222.381V227.177L381.512 228.204L379.376 228.889L378.309 230.26L377.597 231.63V236.425L378.309 238.323V241.221L375.105 243.619L374.749 245.332L371.545 243.619H370.477L370.121 244.304H369.053V240.879V238.138L368.341 237.796V234.37L366.561 230.602L365.849 228.204V223.751L365.137 222.381L364.069 219.641L363.357 218.613L365.493 215.188V212.79L366.205 210.735L367.629 209.364L371.189 208.337L372.257 206.967L374.393 206.281Z" fill="#FFF5D9" stroke="#FFC639"/>
<path d="M228.944 208.785L228.221 211.17H230.028L231.112 212.192V214.576L235.45 219.004V220.367H237.257V223.773L238.342 225.817L239.788 228.201L242.318 229.563H243.764V232.288L240.872 233.651L238.342 235.013V238.079L239.065 238.419L245.21 240.463L247.74 239.101L252.801 238.079L255.331 238.419V240.463L253.885 242.848L255.331 244.21H257.138L258.584 243.529L262.922 242.848L264.006 244.21L267.982 244.891L269.428 242.848V238.419L270.151 237.398H272.682L274.127 239.101L278.465 240.463L280.272 241.485L281.357 240.123V238.419L279.188 235.013L276.296 233.651L275.212 232.288V231.607L276.296 230.926V229.563H272.682L270.151 228.201L267.982 226.838V221.729L269.428 220.367H270.151L271.236 221.729L273.404 221.388L274.85 220.367L276.296 219.004H279.188L280.272 217.301L281.357 215.598L284.249 214.235L284.971 215.598L287.502 216.96L288.586 216.279V212.873H291.478L292.562 210.829H293.285L294.37 209.467V208.104H295.816V205.72L296.539 204.357L297.984 204.017V199.929L296.177 196.523V193.117H291.478L290.394 194.479L284.971 198.226V202.995L283.526 204.017L280.995 203.676H278.465L277.019 206.401V207.082L276.296 208.104H274.85L273.404 206.401L271.597 205.039L270.513 202.995L267.982 201.292H264.006V205.039L261.476 206.401H257.138L253.885 208.104H252.439L250.993 205.039L249.186 206.401L247.74 209.467H245.21L244.487 207.423L240.872 205.72L238.342 203.676L236.896 205.039H228.944V205.72L230.028 207.423L228.944 208.785Z" fill="#FFF5D9" stroke="#FFC639"/>
<path d="M357.346 166.783H360.929L363.795 165.069L367.735 165.411L369.526 163.697H373.109L375.975 165.411H385.289L386.006 164.383L388.872 164.04L389.588 161.297L391.021 160.269L391.379 158.211L395.32 155.468L397.828 155.811L399.619 153.068H401.768L402.485 152.04L406.425 151.697L408.217 150.326H411.083L413.232 149.983L414.665 147.926H418.964L420.397 149.297L418.964 153.068V155.811L420.039 158.211V160.269L417.889 159.926L414.307 160.611L412.516 162.669L411.083 163.011L409.65 165.069H408.217L402.485 168.497L398.544 171.926H397.828L395.32 173.64L392.812 177.754L390.663 180.84L388.155 183.24L386.006 182.554L383.856 184.954L381.707 186.326L381.348 189.069L383.14 190.097V191.469L381.348 194.555L380.274 196.269L379.557 197.983L378.124 199.355V202.783L375.975 205.183V207.24L374.542 206.555L372.392 207.24L371.676 208.612L367.377 209.64L366.302 210.669L364.869 206.898L362.362 205.183L363.436 202.097V200.04L364.511 199.355H365.944H367.377V197.983L365.944 197.297V196.955L372.034 192.84V191.469L370.959 191.126L368.81 187.354L364.869 184.954L363.436 184.612V181.869L365.944 180.154H357.346L355.197 181.526L354.122 183.24L352.331 183.583L351.256 184.612H349.107L348.032 183.583L344.808 182.212H343.016L340.151 181.526H333.344L331.553 181.869L330.836 182.554L329.045 184.612V186.669L327.97 186.326L327.254 184.954V182.554L325.821 180.154L324.746 178.44L325.821 177.412H326.896V173.983L328.329 172.954V170.897L326.896 169.526L326.537 168.497L330.836 168.84L332.986 166.783H335.493L338.001 167.811L354.838 168.154L357.346 166.783Z" fill="#FFF5D9" stroke="#FFC639"/>
<path d="M328.281 187.484L328.993 186.457V184.404L331.484 181.666L333.263 181.324H340.024L342.871 182.008H344.65L347.853 183.377L348.565 184.404H351.056L352.123 183.377L353.902 183.035L354.97 181.324L357.105 179.955H365.645L363.154 181.666V184.404L364.578 184.746L368.492 187.142L370.627 190.906L371.695 191.248V192.617L365.645 197.066L363.154 196.382L361.731 193.986H357.817L354.258 195.013H351.056L349.276 193.644H346.074L344.294 194.329L342.159 193.986L339.668 194.671H334.331L332.196 193.302L331.128 193.644L328.281 192.96L327.214 192.275L326.502 190.564L328.281 188.853V187.484Z" fill="#FFF5D9" stroke="#FFC639"/>
<path d="M148.575 25.8042H140.701V24.0945L139.269 21.7008L135.69 20.675L132.827 18.9652L131.753 16.5716L129.248 14.1779L125.669 12.8101L122.806 10.0746L120.301 9.73261L117.795 5.97118L114.574 3.91949V0.5H113.143L109.921 1.52585H108.132L105.627 0.5H103.121L100.616 1.52585H90.9527V3.91949H82.0052L82.721 5.97118L80.2157 10.0746L77.7103 9.73261L75.205 12.4682L73.7734 16.5716L77.7103 18.9652L82.721 19.3072L84.1526 22.7267L89.1632 24.0945V25.8042L91.3106 26.1461L93.1001 28.5398L98.4686 30.9334H102.405L103.121 33.669L108.132 34.6949H110.637L112.427 38.4563V41.8758L113.143 44.2694L114.574 43.5855L117.795 45.9792V48.0309H119.227L120.658 50.4245L124.237 52.1342L122.806 56.5796H125.669L127.816 57.6054L131.753 61.7088V63.0766L134.259 64.7863H138.553H140.701L141.775 63.7605L143.922 64.7863L146.069 67.18V68.8897L147.859 69.5736L151.438 68.8897V69.5736L154.301 70.9414L156.449 72.6512L158.596 69.5736V73.3351H163.607L165.038 72.6512H166.47L168.259 69.5736V58.6313H164.322L160.743 56.5796L161.459 53.844L162.175 52.1342L161.459 50.4245L160.743 47.347H168.259L169.333 43.5855V40.8499H172.196V39.8241V37.7724H176.133L177.565 35.7207V31.9593L178.638 27.8559V25.8042L176.133 24.0945V23.0686H173.27L171.48 22.3847L168.259 19.6491L166.47 16.5716H161.459L157.88 20.675L148.575 25.8042Z" fill="#FFF5D9" stroke="#FFC639"/>
<path d="M299.196 163.732L298.48 160.992L300.985 162.705H305.278L306.709 161.677L309.93 161.335L311.003 160.65L312.077 163.732L313.866 165.445V166.815H321.022L323.168 168.528H326.031L326.389 169.555L327.82 170.926V172.981L326.389 174.008V177.434H325.315L324.242 178.461L323.168 178.804L322.453 181.544H322.095L319.948 180.859L317.444 179.146L315.655 177.776V175.721L314.223 174.351H313.15V176.406H312.077L309.93 175.378L306.352 175.721L300.985 180.859V182.572L303.131 184.284L304.563 184.969L305.636 187.71L308.141 190.107L310.288 189.765L312.077 191.135L313.866 193.19L313.508 194.218H310.288L307.067 194.903L305.278 196.273L304.92 197.643L300.269 200.726V203.466L300.985 204.836L302.416 206.206L303.847 206.891L305.278 207.919H309.572V211.344L310.288 212.714V214.084L308.856 215.455L307.067 216.482V217.852L308.141 219.907L308.498 220.593L310.288 221.62L310.645 224.36L313.508 227.786L312.434 230.868V232.924L313.866 235.321V240.459L315.297 243.2V244.57L313.15 245.255L315.297 247.31V252.79L313.15 251.42H308.856V247.652H308.498L307.067 251.42H304.563L302.416 249.708L300.985 247.652V244.912L302.416 243.2L300.269 241.829L298.48 238.062L298.122 239.089V240.459L299.553 242.514L299.911 243.542V244.912L298.838 246.625L297.764 247.995L293.113 250.393L292.04 250.735L291.324 250.05L290.608 248.68L289.893 247.995H287.746L285.957 245.255L282.737 243.542L279.874 241.487L280.948 240.117V238.404L278.801 234.979L275.938 233.609L274.865 232.239V231.553L275.938 230.526V229.498H272.36L267.709 226.758V221.62L269.14 220.25H269.856L270.929 221.62L273.076 221.278L274.507 220.25L275.938 218.88H278.801L280.948 215.455L283.81 214.084L284.526 215.455L287.03 216.825L288.104 216.14V212.714H290.966L292.04 210.659H292.755L293.829 209.289V207.919H295.26V205.864L295.975 204.151L297.407 203.809V199.698L295.618 196.273V189.765L299.196 189.08L300.269 187.025L299.911 185.997L297.049 184.284L295.618 182.229V181.544L300.985 178.119L301.7 175.036H302.774L303.489 173.323L301.7 170.583L299.911 171.953L300.985 168.185V165.788L299.196 163.732Z" fill="#FFF5D9" stroke="#FFC639"/>
<path d="M184.515 298.216L181.27 296.849V291.725L182.712 290.701V287.285L183.433 285.235H184.515L185.597 286.601H188.481V286.26V283.185L185.597 279.769L183.433 278.403V276.353L185.236 274.987V273.621H183.433V271.571H186.318V268.497L183.433 266.789L184.515 264.739L184.154 263.031L182.351 259.957L186.318 256.541L185.957 255.516L188.481 254.491V249.709L189.924 248.684V245.609L191.006 244.243H192.448L193.89 241.852V240.827L194.972 238.777L196.054 238.094H199.66L200.02 236.728L201.823 235.361L203.626 234.678L203.987 230.579L205.79 231.262L207.954 229.213L210.838 226.48V224.772L209.035 223.405H207.954L205.79 221.697H201.823V218.965L202.545 215.549H205.79L208.314 217.257H216.968L219.493 216.232V215.549H225.623L227.065 213.158L228.868 211.108H230.31L231.392 212.474V214.524L235.719 218.965V220.331H237.522V223.747L240.046 228.188L242.571 229.554H244.013V232.287L238.604 235.02V238.094L237.162 238.777L233.195 242.535L231.392 243.218V248.001L230.31 250.05L229.229 251.758L228.507 253.808L225.983 257.565L224.901 257.907V258.59H217.329L214.805 261.323H213.723V274.987H218.411L219.493 278.061L217.329 279.769L211.559 276.353L207.232 274.987L205.069 276.353V278.061L206.151 279.769L208.314 282.502V284.21L209.756 287.285V294.8L208.314 296.849L203.987 301.632L201.102 303.34L200.02 305.389V309.83L198.217 309.489H193.169L192.087 308.805L191.006 306.414L189.924 304.706H188.481L187.039 301.973V300.265L186.318 299.582L184.515 298.216Z" fill="#FFF5D9" stroke="#FFC639"/>
<path d="M203.788 309.486L200.576 309.829V305.363L201.29 303.302L204.501 301.584L208.783 297.117L210.21 294.712V286.811L208.783 284.062V281.657L205.928 278.222V276.16L208.069 274.786L212.351 276.504L217.703 279.596L219.844 277.534L218.774 274.786H214.135V261.043H215.206L217.703 258.295H225.197V257.608L226.267 257.264L228.765 253.485L229.478 251.424L231.619 247.645V242.835L233.403 242.148L237.328 238.368L238.756 237.681L245.535 240.086L248.033 238.712L253.028 237.681L255.526 238.025V240.086L254.099 242.491L255.526 243.865H257.667L258.737 243.178L263.019 242.491L264.09 243.865L268.015 244.552L269.442 242.491V238.025L270.155 236.994L273.01 237.338L273.724 238.712L278.362 240.086L280.146 241.117L283.358 243.178L286.569 244.896L287.996 247.301H289.78L290.851 248.332L291.564 249.706L292.278 250.393L287.996 251.08L285.499 252.454L284.071 253.485V254.859L282.287 256.577V260.356L283.358 262.418L284.071 264.823L283.358 267.571L281.574 268.602V271.007L278.362 272.037L276.935 273.755L275.865 276.16L274.794 276.847L274.437 276.16L273.01 275.817L271.583 274.099L271.94 277.534V278.222H270.155L268.371 278.909L264.09 278.565L261.949 277.534H259.451L256.596 280.283L256.953 281.657L255.883 283.031L255.526 285.436L253.742 287.154L251.601 289.559L248.39 289.215L246.249 290.933H244.108V294.025H239.112L235.901 293.682L233.047 290.933L232.333 289.559L228.765 289.215L227.694 290.933V295.056H225.197L224.84 300.553L220.915 300.897L221.272 301.584L216.276 302.271L215.919 300.553H214.849V298.835H213.422L212.708 300.209V306.394L210.567 305.706L208.069 307.424L206.642 307.081L203.788 308.455V309.486Z" fill="#FFF5D9" stroke="#FFC639"/>
<path d="M196.968 312.678V309.609H194.082L192.639 308.927L191.557 306.881L190.475 304.835H189.032L187.588 302.107V300.402L185.063 298.357L181.816 296.993L180.012 296.652H178.209L176.766 295.288V292.901L176.044 291.038V287.104L176.766 286.422L176.044 284.717L174.24 282.33H172.797V284.035H170.633L168.829 283.353L166.303 282.671L165.943 281.648H163.417L162.696 282.33H160.892L159.81 280.625L158.367 278.92H154.759L151.873 278.239V281.989L150.43 285.399V286.763L148.626 287.786L145.379 286.763L144.658 287.786L142.854 291.196L145.379 294.265V295.288L143.575 296.652L143.215 297.334L141.411 299.039L139.968 299.72L139.607 301.766H139.246L139.607 303.13V308.586L139.246 309.609L138.886 312.337L140.689 314.042L139.968 315.065L139.607 316.088L137.442 317.111L137.082 318.475L137.442 320.179V325.635L137.082 329.045L135.639 329.386V331.091H137.082L139.607 332.114V334.842L138.886 336.888L140.329 337.911L145.019 334.501L148.265 333.137L152.955 334.501L158.006 332.455L160.531 334.501L165.582 332.455V330.409L169.19 327.681H171.354L173.519 328.363L175.683 326.317L177.126 324.612L180.012 321.884L182.538 320.52L183.62 321.884H186.145L186.867 318.816L189.753 317.111H191.557L194.804 318.816L195.886 315.747H200.576V313.36L198.411 312.678H196.968Z" fill="#FFE0EB" stroke="#FF658E"/>
<path d="M179.926 376.135L181.709 374.767V380.925L180.639 384.346V387.424L179.926 388.793L179.212 391.872L178.143 392.556L177.073 394.266L175.646 395.292L173.863 397.687H172.079V400.082L173.149 401.108V406.581L172.079 407.265L173.863 408.976V421.975L172.793 422.659H168.156L166.729 423.686L166.016 425.054V428.475L163.876 429.159L162.093 431.896L161.023 433.948L161.736 436.343L163.876 437.027L168.156 437.369L168.869 439.422L166.729 438.396H159.953L156.743 439.08L155.673 440.106L153.533 441.132H151.75L149.61 444.211V448.658L148.183 450.711L143.19 453.789L141.763 454.474L139.624 455.5H135.7L133.56 453.105L134.987 450.711V447.632L134.63 446.606V445.237L133.56 442.843L134.987 440.106V438.396L137.484 437.369L138.197 434.975L135.7 434.633L134.987 431.896V425.054L134.63 422.659H133.56L131.777 423.686L129.994 422.659L128.924 420.607V418.212L127.497 415.134L127.854 412.739L126.784 410.344L124.644 410.002L123.931 407.608L121.791 407.265L120.721 404.871L122.861 403.503L122.147 401.108H124.644L126.427 403.16H128.567L129.994 401.108L132.49 400.082H137.84L138.554 399.055L142.12 398.713V395.292L138.91 393.924V392.214L139.98 390.845L139.624 387.424H141.763L142.477 385.372L143.547 384.346L145.687 384.688H147.47L151.393 387.424L154.603 387.082L155.673 385.372L156.743 383.319L158.883 381.951H162.45L165.303 381.267L167.086 378.872H173.863L177.073 375.451L179.926 376.135Z" fill="#FFE0EB" stroke="#FF658E"/>
<path d="M250.044 291.351L251.474 289.987L248.256 289.646L246.11 291.01H243.964V294.419H238.243L235.739 294.078L232.878 291.351L232.163 289.987L228.587 289.646L227.514 291.351V295.442L225.011 295.783L224.654 300.896L220.72 301.237L221.077 301.919L216.071 302.601L215.713 300.896H214.641V299.192H213.21L212.495 300.896V306.692L210.349 306.01L207.846 308.056L206.416 307.033L203.555 308.738V309.76H200.694H198.906L196.76 309.419V312.829H198.191L200.336 313.511V315.897H195.687L194.615 318.965L191.396 317.261H189.608L186.747 318.965L186.032 322.034H183.529L182.456 320.67L179.595 322.034L177.092 324.761L176.019 326.125L173.516 328.511L171.728 327.829H169.225L165.648 330.557V332.602L160.642 334.648L158.139 332.602L153.132 334.648L148.483 333.284L144.907 334.648L140.616 338.057L139.186 337.034L137.398 337.716H133.821L133.106 338.398V343.171L132.033 345.557V347.262L133.464 348.966L133.821 351.012L131.318 352.035L127.742 351.353L128.457 353.739L129.173 355.103L127.742 356.808V358.853L128.457 359.876L129.173 361.581L129.888 361.922V364.99L130.603 363.626L133.106 363.285H135.61L137.398 363.626V367.376H133.821L133.106 365.331H131.676L130.603 366.354L130.245 367.717L131.318 368.74V370.785L131.676 371.808L134.179 371.467L136.325 369.422L139.186 371.467L143.119 369.763L144.55 369.422L145.98 369.763H147.411L148.483 372.831L149.914 373.172L152.059 373.513L153.132 375.558V378.286H155.993V378.968L153.847 381.354V384.422L151.702 384.763L149.914 386.127L151.702 387.491L154.92 387.15L156.351 385.104L157.066 383.4L159.212 382.036H162.788L165.648 381.354L167.437 378.968H174.231L177.449 375.558L180.31 376.24L182.098 375.217V372.831L180.31 368.74L179.595 364.99L180.31 362.944V360.899L178.88 357.49L178.522 349.648L179.953 347.262V346.239L183.886 341.125L186.39 340.102H189.25L189.966 341.125H191.039L192.469 340.443L194.615 338.739V337.034L195.687 335.33V332.261H205.343L212.495 329.193L213.21 328.17V320.329L215.713 318.965L220.72 317.261L225.011 315.215L227.514 312.488L228.587 310.783L230.375 309.76L232.163 307.715L233.236 306.01L235.739 304.306L237.17 302.942H238.6L240.031 301.578L242.176 300.556L246.11 296.805L248.256 294.419L250.044 291.351Z" fill="#FFE0EB" stroke="#FF658E"/>
<path d="M362.076 206.319L362.801 204.965L364.978 206.658L366.429 210.381L365.704 212.75V215.12L363.527 218.504H361.35L360.624 219.181L359.173 221.212V223.243H358.084L357.359 225.612V228.659H353.368L351.554 225.951H350.465L350.102 223.243L348.288 221.889L347.562 219.181V215.797L349.014 214.443L354.456 210.719H356.27L359.173 209.027V208.35L359.899 206.996L362.076 206.319Z" fill="#FFF5D9" stroke="#FFC639"/>
<mask id="mask0_603_561" style="mask-type:alpha" maskUnits="userSpaceOnUse" x="146" y="297" width="19" height="19">
<rect x="146.527" y="297.897" width="17.8082" height="17.8082" fill="#D9D9D9"/>
</mask>
<g mask="url(#mask0_603_561)">
<path d="M155.43 311.995C153.687 310.709 152.385 309.46 151.525 308.248C150.666 307.036 150.236 305.849 150.236 304.686C150.236 303.808 150.394 303.038 150.71 302.377C151.025 301.715 151.43 301.162 151.924 300.717C152.419 300.272 152.976 299.938 153.594 299.715C154.212 299.492 154.824 299.381 155.43 299.381C156.036 299.381 156.649 299.492 157.267 299.715C157.885 299.938 158.442 300.272 158.936 300.717C159.431 301.162 159.836 301.715 160.152 302.377C160.467 303.038 160.624 303.808 160.624 304.686C160.624 305.849 160.195 307.036 159.335 308.248C158.476 309.46 157.174 310.709 155.43 311.995ZM155.43 306.059C155.838 306.059 156.188 305.914 156.479 305.623C156.769 305.333 156.914 304.983 156.914 304.575C156.914 304.167 156.769 303.818 156.479 303.527C156.188 303.236 155.838 303.091 155.43 303.091C155.022 303.091 154.673 303.236 154.383 303.527C154.092 303.818 153.946 304.167 153.946 304.575C153.946 304.983 154.092 305.333 154.383 305.623C154.673 305.914 155.022 306.059 155.43 306.059ZM150.236 314.221V312.737H160.624V314.221H150.236Z" fill="#FF658E"/>
</g>
<mask id="mask1_603_561" style="mask-type:alpha" maskUnits="userSpaceOnUse" x="151" y="346" width="19" height="19">
<rect x="151.869" y="346.87" width="17.8082" height="17.8082" fill="#D9D9D9"/>
</mask>
<g mask="url(#mask1_603_561)">
<path d="M160.772 360.968C159.028 359.682 157.727 358.433 156.867 357.221C156.008 356.009 155.578 354.822 155.578 353.659C155.578 352.781 155.736 352.011 156.052 351.349C156.367 350.688 156.772 350.135 157.266 349.689C157.761 349.244 158.317 348.91 158.936 348.688C159.554 348.465 160.166 348.354 160.772 348.354C161.378 348.354 161.99 348.465 162.609 348.688C163.227 348.91 163.784 349.244 164.278 349.689C164.773 350.135 165.178 350.688 165.494 351.349C165.809 352.011 165.966 352.781 165.966 353.659C165.966 354.822 165.536 356.009 164.677 357.221C163.817 358.433 162.516 359.682 160.772 360.968ZM160.772 355.032C161.18 355.032 161.53 354.886 161.821 354.596C162.111 354.305 162.256 353.956 162.256 353.548C162.256 353.14 162.111 352.79 161.821 352.499C161.53 352.209 161.18 352.064 160.772 352.064C160.364 352.064 160.015 352.209 159.724 352.499C159.434 352.79 159.288 353.14 159.288 353.548C159.288 353.956 159.434 354.305 159.724 354.596C160.015 354.886 160.364 355.032 160.772 355.032ZM155.578 363.194V361.71H165.966V363.194H155.578Z" fill="#42D3B6"/>
</g>
<mask id="mask2_603_561" style="mask-type:alpha" maskUnits="userSpaceOnUse" x="102" y="346" width="19" height="19">
<rect x="102.896" y="346.87" width="17.8082" height="17.8082" fill="#D9D9D9"/>
</mask>
<g mask="url(#mask2_603_561)">
<path d="M111.8 360.968C110.056 359.682 108.754 358.433 107.894 357.221C107.035 356.009 106.605 354.822 106.605 353.659C106.605 352.781 106.763 352.011 107.079 351.349C107.394 350.688 107.799 350.135 108.294 349.689C108.788 349.244 109.345 348.91 109.963 348.688C110.581 348.465 111.194 348.354 111.8 348.354C112.406 348.354 113.018 348.465 113.636 348.688C114.254 348.91 114.811 349.244 115.306 349.689C115.8 350.135 116.205 350.688 116.521 351.349C116.836 352.011 116.994 352.781 116.994 353.659C116.994 354.822 116.564 356.009 115.704 357.221C114.845 358.433 113.543 359.682 111.8 360.968ZM111.8 355.032C112.208 355.032 112.557 354.886 112.848 354.596C113.138 354.305 113.284 353.956 113.284 353.548C113.284 353.14 113.138 352.79 112.848 352.499C112.557 352.209 112.208 352.064 111.8 352.064C111.391 352.064 111.042 352.209 110.752 352.499C110.461 352.79 110.316 353.14 110.316 353.548C110.316 353.956 110.461 354.305 110.752 354.596C111.042 354.886 111.391 355.032 111.8 355.032ZM106.605 363.194V361.71H116.994V363.194H106.605Z" fill="#FF983B"/>
</g>
<mask id="mask3_603_561" style="mask-type:alpha" maskUnits="userSpaceOnUse" x="92" y="274" width="19" height="19">
<rect x="92.2129" y="274.747" width="17.8082" height="17.8082" fill="#D9D9D9"/>
</mask>
<g mask="url(#mask3_603_561)">
<path d="M101.116 288.845C99.3722 287.558 98.0705 286.309 97.2107 285.097C96.3515 283.886 95.9219 282.698 95.9219 281.536C95.9219 280.658 96.0797 279.888 96.3953 279.226C96.7104 278.565 97.1153 278.011 97.6099 277.566C98.1046 277.121 98.6611 276.787 99.2795 276.564C99.8978 276.342 100.51 276.23 101.116 276.23C101.722 276.23 102.334 276.342 102.952 276.564C103.571 276.787 104.127 277.121 104.622 277.566C105.117 278.011 105.522 278.565 105.837 279.226C106.152 279.888 106.31 280.658 106.31 281.536C106.31 282.698 105.88 283.886 105.02 285.097C104.161 286.309 102.86 287.558 101.116 288.845ZM101.116 282.909C101.524 282.909 101.874 282.763 102.164 282.472C102.455 282.182 102.6 281.833 102.6 281.425C102.6 281.016 102.455 280.667 102.164 280.376C101.874 280.086 101.524 279.941 101.116 279.941C100.708 279.941 100.359 280.086 100.068 280.376C99.7774 280.667 99.6319 281.016 99.6319 281.425C99.6319 281.833 99.7774 282.182 100.068 282.472C100.359 282.763 100.708 282.909 101.116 282.909ZM95.9219 291.071V289.587H106.31V291.071H95.9219Z" fill="#6226EF"/>
</g>
<mask id="mask4_603_561" style="mask-type:alpha" maskUnits="userSpaceOnUse" x="157" y="302" width="19" height="19">
<rect x="157.213" y="302.349" width="17.8082" height="17.8082" fill="#D9D9D9"/>
</mask>
<g mask="url(#mask4_603_561)">
<path d="M166.116 316.447C164.372 315.161 163.07 313.912 162.211 312.7C161.351 311.488 160.922 310.301 160.922 309.139C160.922 308.261 161.08 307.491 161.395 306.829C161.71 306.167 162.115 305.614 162.61 305.169C163.105 304.724 163.661 304.39 164.279 304.167C164.898 303.945 165.51 303.833 166.116 303.833C166.722 303.833 167.334 303.945 167.952 304.167C168.571 304.39 169.127 304.724 169.622 305.169C170.117 305.614 170.522 306.167 170.837 306.829C171.152 307.491 171.31 308.261 171.31 309.139C171.31 310.301 170.88 311.488 170.02 312.7C169.161 313.912 167.86 315.161 166.116 316.447ZM166.116 310.511C166.524 310.511 166.874 310.366 167.164 310.075C167.455 309.785 167.6 309.435 167.6 309.027C167.6 308.619 167.455 308.27 167.164 307.979C166.874 307.688 166.524 307.543 166.116 307.543C165.708 307.543 165.359 307.688 165.068 307.979C164.777 308.27 164.632 308.619 164.632 309.027C164.632 309.435 164.777 309.785 165.068 310.075C165.359 310.366 165.708 310.511 166.116 310.511ZM160.922 318.673V317.189H171.31V318.673H160.922Z" fill="#FFC639"/>
</g>
</svg>
