<svg width="150" height="150" viewBox="0 0 150 150" fill="none" xmlns="http://www.w3.org/2000/svg">
<path fill-rule="evenodd" clip-rule="evenodd" d="M146.939 96.2467L146.798 85.8376L145.614 83.8305C144.848 82.5282 143.723 81.4092 142.418 80.6449C140.446 79.4902 140.233 79.4616 132.096 79.2521L123.786 79.0402V62.8265L122.502 60.7552C121.566 59.2481 120.597 58.36 118.938 57.4982L116.66 56.3101L94.8129 56.3054L91.5568 46.6415C88.327 37.0585 88.3007 36.949 88.5132 33.4729L88.7257 29.9683H91.8099C96.1235 29.9683 96.3049 29.7135 96.3049 23.6923C96.3049 17.6711 96.0662 17.6473 91.5234 17.6473H88.6349V14.7689C88.6349 10.1976 88.3724 10 82.2708 10C78.1076 10 77.1336 10.1214 76.649 10.7024C76.2718 11.1571 76.0642 12.5047 76.0642 14.526V17.6473H73.0229C68.5231 17.6497 68.2223 18.0116 68.0815 23.5495L67.9693 27.9612L39.5334 38.0442H21.6536L18.7556 40.9345V53.2769L12.6063 53.415C7.15636 53.5364 6.32086 53.6531 5.25618 54.4435C3.16503 55.9911 3.00748 56.753 3.00032 65.3574C2.99077 76.9522 3.134 77.126 12.7734 77.126H18.7604V83.302C18.7604 92.7349 18.8988 92.8468 30.4789 92.8468C42.059 92.8468 42.1975 92.7778 42.1975 83.4043V77.126H48.1272C51.3881 77.126 54.3362 77.0189 54.6752 76.8903C55.0882 76.7331 56.5682 78.2498 59.1845 81.5163L63.0756 86.378V98.2942C63.0756 104.849 63.2546 110.679 63.4743 111.253C64.1212 112.951 66.5656 115.441 68.399 116.272C69.8528 116.932 71.2922 117.046 78.0956 117.055L86.0855 117.065V125.11C86.0855 129.534 86.2645 133.624 86.4841 134.198C87.131 135.895 89.5755 138.386 91.4088 139.216C92.9247 139.902 94.4166 139.993 104.665 140C112.189 140.007 116.718 139.84 117.66 139.526C119.852 138.795 121.781 137.186 122.836 135.205C123.724 133.543 123.786 132.883 123.791 125.35L123.795 117.277L132.105 117.065C141.756 116.817 142.881 116.477 145.177 113.103C146.956 110.489 147.12 108.925 146.946 96.2467H146.939ZM70.7408 20.6186H78.8356V12.5475H85.6534V20.621H93.7482V27.2065L85.6534 26.9351V35.0657H78.8356V26.9922H70.7408V20.6186ZM52.8442 72.0095L37.2919 72.2405V87.7494H23.6564V72.2405L8.10407 72.0095V58.4315H23.8689V43.1368H37.2895L37.0388 58.4315H52.8418V72.0095H52.8442ZM67.9693 79.483L58.17 73.8118L57.9575 65.1026C57.7642 57.1672 57.6687 56.3101 56.8929 55.4435C55.3531 53.7245 53.6654 53.3341 47.7453 53.3341H42.1927V42.3964L52.9349 37.3489C58.8432 34.5729 64.8946 31.7277 66.3842 31.0278C68.8215 29.8802 69.435 29.7659 72.5789 29.8873L76.0665 30.0207L75.9257 32.9539C75.7968 35.6228 75.8827 35.9823 76.8662 36.9633C77.8688 37.9632 78.2317 38.0394 81.9676 38.0394C85.7035 38.0394 85.9995 38.087 86.2168 38.9965C86.3433 39.5227 87.0714 44.1058 87.8376 49.1842L89.2293 58.4148L88.3437 59.3791C86.2597 61.6528 86.0807 62.5789 86.0807 71.1143V79.1664L67.9717 79.483H67.9693ZM136.569 106.87H113.321L113.562 129.814H96.3049V106.87H73.295V89.4493H96.3049V66.5074H113.562L113.321 89.4493H136.569V106.87Z" fill="white"/>
</svg>
