<svg width="350" height="350" viewBox="0 0 350 350" fill="none" xmlns="http://www.w3.org/2000/svg">
<path fill-rule="evenodd" clip-rule="evenodd" d="M343.856 225.011L343.525 200.51L340.737 195.786C338.933 192.72 336.287 190.086 333.212 188.287C328.571 185.569 328.07 185.502 308.913 185.009L289.35 184.51V146.346L286.327 141.47C284.124 137.922 281.842 135.832 277.936 133.803L272.575 131.007L221.143 130.996L213.478 108.248C205.874 85.6915 205.812 85.4337 206.312 77.2516L206.812 69.0023H214.073C224.228 69.0023 224.655 68.4026 224.655 54.2296C224.655 40.0567 224.093 40.0006 213.399 40.0006H206.599V33.2252C206.599 22.4651 205.981 22 191.617 22C181.816 22 179.523 22.2858 178.382 23.6532C177.494 24.7236 177.005 27.8956 177.005 32.6535V40.0006H169.846C159.252 40.0062 158.544 40.8581 158.213 53.8934L157.949 64.2779L91.0058 88.0116H48.9137L42.0913 94.8151V123.867L27.6147 124.192C14.7848 124.478 12.8178 124.753 10.3114 126.613C5.38851 130.256 5.0176 132.049 5.00074 152.303C4.97826 179.595 5.31545 180.004 28.0081 180.004H42.1025V194.542C42.1025 216.745 42.4284 217.009 69.69 217.009C96.9515 217.009 97.2774 216.846 97.2774 194.782V180.004H111.237C118.914 180.004 125.854 179.752 126.652 179.449C127.624 179.08 131.108 182.649 137.268 190.338L146.428 201.782V229.831C146.428 245.259 146.849 258.984 147.367 260.335C148.889 264.33 154.644 270.192 158.96 272.148C162.383 273.701 165.771 273.97 181.788 273.992L200.597 274.014V292.951C200.597 303.363 201.018 312.991 201.536 314.342C203.058 318.338 208.813 324.2 213.129 326.156C216.698 327.77 220.21 327.983 244.336 327.999C262.049 328.016 272.71 327.624 274.93 326.884C280.089 325.164 284.63 321.375 287.113 316.713C289.204 312.801 289.35 311.249 289.361 293.517L289.373 274.513L308.935 274.014C331.656 273.432 334.303 272.63 339.709 264.689C343.896 258.536 344.283 254.854 343.873 225.011H343.856ZM164.473 46.9946H183.53V27.9965H199.58V47.0003H218.636V62.5014L199.58 61.8625V81.0008H183.53V61.997H164.473V46.9946ZM122.342 167.961L85.7288 168.504V205.01H53.6287V168.504L17.0158 167.961V136H54.1288V99.999H85.7232L85.1331 136H122.336V167.961H122.342ZM157.949 185.552L134.879 172.203L134.379 151.703C133.924 133.024 133.699 131.007 131.873 128.967C128.248 124.921 124.275 124.002 110.338 124.002H97.2662V98.2561L122.555 86.3752C136.464 79.8407 150.71 73.1438 154.217 71.4961C159.955 68.7949 161.399 68.5259 168.8 68.8117L177.011 69.1256L176.679 76.0299C176.376 82.3122 176.578 83.1584 178.893 85.4673C181.254 87.8211 182.108 88.0004 190.903 88.0004C199.698 88.0004 200.395 88.1125 200.906 90.2533C201.204 91.4918 202.918 102.28 204.722 114.234L207.998 135.961L205.913 138.231C201.007 143.583 200.586 145.763 200.586 165.854V184.807L157.954 185.552H157.949ZM319.444 250.017H264.713L265.281 304.025H224.655V250.017H170.486V209.011H224.655V155.01H265.281L264.713 209.011H319.444V250.017Z" fill="white"/>
</svg>
