<svg width="59" height="59" viewBox="0 0 59 59" fill="none" xmlns="http://www.w3.org/2000/svg">
<rect width="58.1538" height="58.1538" rx="15" fill="white"/>
<path fill-rule="evenodd" clip-rule="evenodd" d="M34.2 16.0831L32.5711 18.1662L33.5773 18.1981L34.5834 18.23L34.6146 19.5313L34.6458 20.8326H35.9188H37.1919L37.2231 19.5272L37.2542 18.2218H38.2471C38.7931 18.2218 39.2399 18.1977 39.2399 18.1682C39.2399 18.0581 36.0083 14 35.9205 14C35.8701 14 35.0959 14.9375 34.2 16.0831ZM25.6047 22.4099C23.6425 24.8947 23.4096 25.1971 23.4096 25.2602C23.4096 25.295 23.8455 25.3379 24.3782 25.3556L25.3469 25.3877L25.3781 26.6931L25.4092 27.9985H26.6753H27.9414L27.9725 26.6931L28.0037 25.3877L28.9723 25.3556C29.5051 25.3379 29.941 25.284 29.941 25.2359C29.941 25.1237 26.8551 21.1771 26.7323 21.1322C26.6817 21.1138 26.1742 21.6887 25.6047 22.4099ZM32.431 23.0268C32.3977 23.1643 32.3844 26.5514 32.4012 30.5538L32.4317 37.8308L33.1236 37.8639L33.8155 37.8969V36.6067C33.8155 35.8971 33.8671 35.2197 33.9301 35.1015C34.0319 34.9105 34.1709 34.8866 35.1809 34.8866H36.3171L35.6933 34.2428C33.8139 32.3034 33.6658 29.3769 35.34 27.2631C36.1508 26.2392 37.8843 25.3321 39.0301 25.3321H39.4613V24.2302C39.4613 23.6242 39.431 23.0493 39.3941 22.9526C39.3348 22.7976 38.9236 22.7768 35.9091 22.7768H32.4913L32.431 23.0268ZM37.8995 26.5935C37.1353 26.9091 36.7392 27.1869 36.1999 27.7862C34.5961 29.5677 34.8806 32.525 36.791 33.9325C37.7466 34.6363 38.2839 34.8185 39.4168 34.8225C40.3608 34.8259 40.4764 34.8 41.2638 34.4095C42.2199 33.9352 42.8308 33.3179 43.3069 32.3448C43.5817 31.7833 43.6125 31.6026 43.6125 30.5538C43.6125 29.503 43.582 29.3248 43.3048 28.7583C42.7868 27.7001 41.8718 26.8997 40.7423 26.5169C39.9301 26.2417 38.6696 26.2757 37.8995 26.5935ZM15.8271 28.5818C14.9452 29.6969 14.2396 30.6593 14.259 30.7204C14.2786 30.7815 14.7265 30.846 15.2544 30.8636L16.214 30.8957V32.1691V33.4424H17.4871H18.7601V32.1647V30.8871H19.6946C20.2086 30.8871 20.6599 30.837 20.6976 30.7756C20.7564 30.6802 17.6096 26.5542 17.478 26.5542C17.452 26.5542 16.7091 27.4667 15.8271 28.5818ZM37.3793 28.3596L37.4133 28.8317L38.2061 28.8642C38.7331 28.8857 39.044 28.951 39.133 29.0586C39.2486 29.1984 39.1361 29.2206 38.3124 29.2206H37.3579V29.665V30.1094L38.3266 30.113L39.2952 30.1168L39.0338 30.3352C38.8344 30.5021 38.6062 30.5538 38.0691 30.5538C37.479 30.5538 37.3466 30.5896 37.2472 30.776C37.0808 31.0881 37.1735 31.2182 38.5103 32.549L39.6776 33.711L40.0144 33.3871L40.3513 33.0632L39.5619 32.2656L38.7724 31.468L39.1539 31.3416C39.5487 31.2108 40.0037 30.7942 40.2265 30.3594C40.3377 30.1424 40.442 30.1094 41.0149 30.1094H41.6753V29.665V29.2206H40.9557C40.4004 29.2206 40.2362 29.1837 40.2362 29.0593C40.2362 28.939 40.4121 28.8895 40.928 28.8648L41.6199 28.8317L41.6539 28.3596L41.688 27.8874H39.5166H37.3452L37.3793 28.3596ZM23.2397 30.0245C23.2102 30.1017 23.199 33.2646 23.2149 37.0531L23.2435 43.9412L26.7037 43.9706L30.164 44L30.1355 36.9713L30.107 29.9427L26.7001 29.9134C24.0342 29.8904 23.2815 29.9145 23.2397 30.0245ZM14.0754 35.4035C14.0339 35.4451 14 37.3964 14 39.7396V43.9999L17.4594 43.9706L20.9188 43.9412V39.6639V35.3866L17.5348 35.3573C15.6736 35.3412 14.1168 35.3619 14.0754 35.4035ZM34.9502 35.849C34.854 35.888 34.8118 36.2072 34.8118 36.8957V37.8863H39.4059H44V36.8983C44 36.0998 43.9665 35.8974 43.8249 35.8429C43.6159 35.7623 35.1497 35.7682 34.9502 35.849ZM32.9299 39.9417V40.9995L37.4963 40.9705L42.0627 40.9416V39.9417V38.9418L37.4963 38.9128L32.9299 38.8838V39.9417ZM32.8745 41.985L32.4317 42.0525L32.3982 42.7712C32.3434 43.9423 32.3769 43.9968 33.1534 43.9968H33.8155V42.9413C33.8155 41.7562 33.8883 41.8303 32.8745 41.985ZM34.8118 42.9969V43.9968H39.4059H44V42.9969V41.997H39.4059H34.8118V42.9969Z" fill="#FF82AC"/>
</svg>
