<svg width="59" height="59" viewBox="0 0 59 59" fill="none" xmlns="http://www.w3.org/2000/svg">
<rect width="58.1538" height="58.1538" rx="15" fill="white"/>
<path fill-rule="evenodd" clip-rule="evenodd" d="M20.8753 13.2458C20.378 13.7105 20.4177 13.9252 21.4658 16.4355L22.4602 18.8167H26.2297H29.9993L30.9898 16.4312C32.0321 13.9211 32.0717 13.7065 31.5786 13.2458C31.3231 13.0069 31.1718 13 26.2269 13C21.2821 13 21.1308 13.0069 20.8753 13.2458ZM18.6789 15.3339C18.3091 15.5253 18.0501 16.0041 18.1303 16.3481C18.1634 16.49 18.4955 17.1035 18.8682 17.7114L19.546 18.8167H20.5555H21.5651L21.1915 17.9381C20.9859 17.455 20.6469 16.6506 20.4381 16.1507L20.0584 15.2418L19.5185 15.2103C19.2215 15.193 18.8437 15.2486 18.6789 15.3339ZM32.2145 15.6812C32.0861 15.9728 31.7361 16.7976 31.437 17.514L30.893 18.8167H31.9004H32.9079L33.6029 17.6957C34.3785 16.4447 34.4798 15.953 34.0503 15.5224C33.8682 15.3398 33.5929 15.2464 33.12 15.2071L32.4482 15.1512L32.2145 15.6812ZM19.2814 19.858C18.647 20.1339 18.3289 20.4946 18.1313 21.1621C17.9916 21.634 17.9815 21.8709 18.0848 22.2554C18.2528 22.8815 18.9615 23.5974 19.5853 23.7711C20.2306 23.9508 32.2016 23.9569 32.8444 23.7778C33.4018 23.6226 34.0577 23.0646 34.2606 22.5733C34.4763 22.0512 34.3615 20.9957 34.04 20.5428C33.8947 20.338 33.5415 20.0567 33.2551 19.9177C32.7468 19.6709 32.5821 19.665 26.219 19.6697C20.6728 19.6736 19.6405 19.7018 19.2814 19.858ZM38.2932 21.9419C38.2196 21.9893 37.2466 23.331 36.1311 24.9236C34.5202 27.2233 34.1279 27.8593 34.2247 28.0137C34.318 28.1627 34.5903 28.2164 35.389 28.2432L36.4313 28.2781L36.4634 31.5756L36.4956 34.8731H38.4889H40.4822L40.5143 31.5709L40.5465 28.2687H41.5672C43.1733 28.2687 43.1866 28.3287 40.8427 24.9834C39.7505 23.4245 38.7602 22.0832 38.6419 22.0025C38.5238 21.9219 38.3669 21.8946 38.2932 21.9419ZM18.5313 25.3301C15.112 28.8276 12.9933 34.442 13 39.9882C13.0029 42.4184 13.7429 43.7754 15.521 44.6117L16.2 44.931L24.1076 44.9656L32.0153 45L31.7545 44.7215C30.8043 43.707 30.9704 41.65 32.0781 40.7151L32.467 40.3868L32.0781 40.0585C31.5338 39.5991 31.1223 38.6575 31.1208 37.8684C31.1176 36.082 32.4897 34.9337 34.6276 34.9337H35.5895V32.0394V29.1452L34.8011 29.0948C33.8829 29.0362 33.4515 28.7183 33.3421 28.0198C33.2873 27.669 33.3677 27.4603 33.8459 26.7147L34.4151 25.8271L33.829 25.2303L33.2428 24.6333H26.2277H19.2125L18.5313 25.3301ZM25.9491 29.2624C25.8694 29.3424 25.8041 29.6045 25.8041 29.8451C25.8041 30.2395 25.7564 30.3034 25.3151 30.4986C24.4407 30.8856 23.9314 32.0156 24.2269 32.9135C24.5173 33.7963 25.3662 34.4402 26.2478 34.4463C27.1129 34.4523 27.7229 35.474 27.3236 36.2483C27.0779 36.725 26.7966 36.8733 26.1443 36.8699C25.5898 36.867 25.2054 36.6401 24.9684 36.1758C24.8083 35.8621 24.2977 35.8033 24.1895 36.086C24.1511 36.1864 24.1672 36.3944 24.2254 36.5479C24.3624 36.9094 25.1198 37.5748 25.5043 37.6716C25.7585 37.7356 25.8041 37.818 25.8041 38.2127C25.8041 38.7407 26.0741 38.9908 26.4352 38.7969C26.5836 38.7173 26.6498 38.5381 26.6498 38.216C26.6498 37.8113 26.698 37.7301 27.017 37.5976C27.5719 37.3671 28.1971 36.5648 28.2862 35.9691C28.372 35.3954 28.1365 34.6946 27.701 34.2274C27.3293 33.8285 27.0998 33.7234 26.3232 33.5967C25.2629 33.4235 24.7484 32.7167 25.0683 31.8726C25.2118 31.494 25.8514 31.057 26.2632 31.0564C26.6964 31.0556 27.2315 31.388 27.4361 31.785C27.5386 31.9839 27.7189 32.1465 27.8368 32.1465C28.0883 32.1465 28.3411 31.922 28.3411 31.6985C28.3411 31.4272 27.4932 30.5861 27.0622 30.4297C26.6969 30.2972 26.6498 30.2303 26.6498 29.844C26.6498 29.4095 26.4797 29.117 26.2269 29.117C26.1539 29.117 26.0288 29.1824 25.9491 29.2624ZM33.3671 35.9077C32.9574 36.0308 32.3777 36.5534 32.1357 37.018C32.042 37.198 31.9653 37.596 31.9653 37.9026C31.9653 38.8103 32.587 39.6638 33.4233 39.9045C33.6614 39.9729 35.833 40.0232 38.5531 40.0232C43.2047 40.0232 43.2774 40.0195 43.808 39.7506C45.3953 38.9462 45.3633 36.7451 43.7535 36.0117C43.2994 35.8048 42.8859 35.7879 38.4889 35.795C35.8643 35.7993 33.5596 35.85 33.3671 35.9077ZM32.9223 41.1471C32.6981 41.2985 32.3863 41.6122 32.2294 41.8439C31.9897 42.1978 31.9513 42.382 31.9891 42.9974C32.0426 43.8705 32.363 44.3964 33.0579 44.7521C33.5016 44.979 33.7833 44.9916 38.4275 44.9916C43.8446 44.9916 43.8209 44.9947 44.4949 44.2246C45.1302 43.4988 45.1681 42.5747 44.5978 41.7104C44.0426 40.869 44.0615 40.8715 38.3979 40.8715H33.3299L32.9223 41.1471Z" fill="#396AFF"/>
<path d="M22.5 30.5L24 39H28L29 34V30.5L27 27.5L22.5 30.5Z" fill="#396AFF" stroke="#396AFF"/>
<path d="M26.532 33.984C26.411 34.435 26.191 34.776 25.872 35.018C25.542 35.26 25.19 35.436 24.794 35.546L27.423 39.011H25.619L23.771 36.536C23.551 36.25 23.364 36.041 23.188 35.909C23.012 35.777 22.836 35.722 22.649 35.722H22.55V34.809H23.199C23.397 34.809 23.584 34.798 23.771 34.776C23.958 34.754 24.134 34.721 24.288 34.666C24.442 34.611 24.585 34.534 24.706 34.424C24.827 34.314 24.915 34.171 24.981 33.984H22.352L22.682 33.005H25.003C24.937 32.763 24.794 32.576 24.596 32.466C24.387 32.356 24.112 32.301 23.76 32.279H22.352L22.682 31.3H27.61L27.28 32.279H26.356C26.466 32.499 26.543 32.741 26.587 33.005H27.61L27.28 33.984H26.532Z" fill="white"/>
</svg>
