<svg width="59" height="59" viewBox="0 0 59 59" fill="none" xmlns="http://www.w3.org/2000/svg">
<rect width="58.1538" height="58.1538" rx="15" fill="white"/>
<path fill-rule="evenodd" clip-rule="evenodd" d="M33.5807 14.0805C30.6078 14.6096 28.2343 16.8247 27.4715 19.7818C26.3862 23.9896 28.9122 28.2346 33.1515 29.3274C34.4257 29.656 36.6106 29.5439 37.8017 29.089C41.3186 27.7461 43.4 24.309 42.8554 20.743C42.3604 17.5008 40.3879 15.1751 37.376 14.2819C36.4867 14.0183 34.5175 13.9137 33.5807 14.0805ZM34.6901 16.5398C34.57 16.6715 34.4716 16.9652 34.4716 17.1925C34.4716 17.5364 34.3984 17.6362 34.0364 17.7862C33.4657 18.0227 32.9302 18.6675 32.7483 19.3371C32.5742 19.9784 32.7524 20.8498 33.1793 21.4442C33.4881 21.8742 34.3515 22.3146 34.8945 22.3189C35.4305 22.3232 35.9212 22.5914 36.1317 22.9953C36.3764 23.4644 36.369 23.7042 36.0956 24.1631C35.7989 24.6611 35.3181 24.8089 33.9945 24.8089C33.0443 24.8089 32.8783 24.8429 32.7601 25.062C32.4373 25.6601 32.789 25.987 33.7549 25.987C34.4363 25.987 34.4716 26.0036 34.4716 26.3229C34.4716 26.8204 34.7058 27.1651 35.0439 27.1651C35.4672 27.1651 35.6593 26.9234 35.6632 26.3862C35.6663 25.9722 35.7246 25.895 36.1991 25.6779C36.8894 25.3622 37.3966 24.6043 37.4776 23.767C37.6005 22.4986 36.6602 21.3431 35.3723 21.1799C34.532 21.0734 34.1188 20.8193 33.947 20.3032C33.8244 19.9348 33.8349 19.777 34.0034 19.4539C34.2979 18.8892 34.5751 18.7875 35.8198 18.7875C36.603 18.7875 37.0059 18.7286 37.2145 18.5837C37.8836 18.1191 37.3479 17.4785 36.2904 17.4785H35.6598V17.0249C35.6598 16.7105 35.5815 16.5299 35.4045 16.4359C35.0509 16.2483 34.9416 16.2643 34.6901 16.5398ZM25.4141 29.6738C24.3134 29.7895 23.8804 29.9513 21.0934 31.2883C19.0568 32.2653 19.0048 32.3004 19.0908 32.6401C19.1394 32.8318 19.3807 34.1082 19.627 35.4765C19.8734 36.8448 20.2231 38.7806 20.4041 39.7783C20.6137 40.9343 20.7043 41.8009 20.6536 42.1672C20.584 42.6709 20.605 42.7422 20.8231 42.743C21.049 42.7438 25.8626 43.2975 30.5772 43.8651C32.7075 44.1215 33.7944 44.0251 35.0687 43.4662C36.0641 43.0298 44.7127 37.7127 45.2675 37.1962C46.9785 35.6031 45.4577 32.521 43.1176 32.839C42.7903 32.8835 41.1326 33.4363 39.4338 34.0675L36.3451 35.2153L36.2594 35.8561C36.0948 37.0869 35.1967 38.3127 34.0179 38.9155C33.4768 39.1922 33.1611 39.2584 32.3594 39.2628C31.5093 39.2675 31.0177 39.1586 28.8851 38.4931C26.3943 37.7158 26.0524 37.53 26.2366 37.0539C26.4306 36.5527 26.7325 36.5782 29.1447 37.2988C32.1309 38.1907 32.2006 38.2041 32.9342 38.021C34.3993 37.6551 35.3379 36.1554 34.9934 34.7309C34.7506 33.7277 34.1988 33.2349 31.5272 31.6361C28.3703 29.7467 27.4702 29.4578 25.4141 29.6738ZM14.5084 31.9275C12.8278 32.2419 12.4287 32.4643 12.0776 33.2813C11.9122 33.6663 11.9663 34.0938 12.6887 38.1145C13.1246 40.5405 13.4812 42.5721 13.4812 42.6291C13.4812 42.6863 13.6623 42.9377 13.8838 43.1877C14.5308 43.9184 14.882 43.9692 16.8296 43.6138C18.3317 43.3395 18.5632 43.2611 18.9225 42.9051C19.5519 42.281 19.5373 41.766 18.7688 37.5061C17.8628 32.483 17.8962 32.61 17.3585 32.1419C17.1087 31.9244 16.7925 31.7465 16.6557 31.7465C16.519 31.7465 16.328 31.7222 16.2313 31.6924C16.1345 31.6625 15.3592 31.7683 14.5084 31.9275Z" fill="#FFBB38"/>
<path d="M32.5 16.5L31.5 25.5L36 27.5L37.5 26L39 16.5H32.5Z" fill="#FFBB38" stroke="#FFBB38"/>
</svg>
