<svg width="60" height="60" viewBox="0 0 60 60" fill="none" xmlns="http://www.w3.org/2000/svg">
<rect width="60" height="60" rx="15" fill="white"/>
<path fill-rule="evenodd" clip-rule="evenodd" d="M28.6906 14.1711C28.0913 14.3598 27.2464 14.9397 26.8748 15.4177C26.7417 15.589 24.8548 18.8708 22.6819 22.7105C20.5091 26.5502 17.518 31.8325 16.0351 34.449C14.5524 37.0654 13.255 39.4507 13.1521 39.7496C12.8861 40.5227 12.9801 41.9427 13.3473 42.7004C13.7117 43.4523 14.5375 44.2826 15.2941 44.658L15.8771 44.9474L29.7443 44.9815C45.7637 45.0209 44.4869 45.1156 45.8001 43.7909C46.386 43.2 46.6298 42.8381 46.7952 42.3145C47.0738 41.4324 47.0679 40.4701 46.779 39.6467C46.6543 39.2912 45.0021 36.2659 43.1075 32.9239C41.213 29.5819 38.2232 24.3055 36.4636 21.1984C32.9381 14.9732 32.6481 14.5781 31.3135 14.179C30.5255 13.9434 29.4248 13.94 28.6906 14.1711ZM29.1899 21.7372C28.287 22.3075 28.0143 23.7647 28.2577 26.7183C28.4769 29.3772 29.0528 32.8257 29.439 33.7923C29.6285 34.2666 30.0255 34.379 30.3515 34.0508C30.9071 33.4912 31.774 28.1355 31.7894 25.1669C31.7997 23.1816 31.6289 22.4382 31.0331 21.8747C30.5884 21.4541 29.7384 21.3908 29.1899 21.7372ZM29.1646 36.1237C27.8436 36.7979 27.7121 38.5525 28.9194 39.3949C29.3485 39.6943 29.5164 39.7357 30.1044 39.6865C30.9372 39.617 31.3825 39.3157 31.7462 38.5759C31.9447 38.172 31.9956 37.9002 31.9343 37.5712C31.7845 36.7669 30.728 35.8328 29.9683 35.8328C29.8397 35.8328 29.478 35.9637 29.1646 36.1237Z" fill="#FFBB38"/>
</svg>
