<svg width="15" height="15" viewBox="0 0 15 15" fill="none" xmlns="http://www.w3.org/2000/svg">
<mask id="mask0_603_666" style="mask-type:alpha" maskUnits="userSpaceOnUse" x="0" y="0" width="15" height="15">
<rect width="15" height="15" fill="#D9D9D9"/>
</mask>
<g mask="url(#mask0_603_666)">
<path d="M7.5 12.75C5.65357 11.45 4.27517 10.1875 3.36479 8.9625C2.45493 7.7375 2 6.5375 2 5.3625C2 4.475 2.1671 3.69675 2.50129 3.02775C2.83495 2.35925 3.26369 1.8 3.7875 1.35C4.31131 0.9 4.9006 0.5625 5.55536 0.3375C6.21012 0.1125 6.85833 0 7.5 0C8.14167 0 8.78988 0.1125 9.44464 0.3375C10.0994 0.5625 10.6887 0.9 11.2125 1.35C11.7363 1.8 12.1653 2.35925 12.4995 3.02775C12.8332 3.69675 13 4.475 13 5.3625C13 6.5375 12.5448 7.7375 11.6344 8.9625C10.7246 10.1875 9.34643 11.45 7.5 12.75ZM7.5 6.75C7.93214 6.75 8.30222 6.603 8.61022 6.309C8.91769 6.0155 9.07143 5.6625 9.07143 5.25C9.07143 4.8375 8.91769 4.48425 8.61022 4.19025C8.30222 3.89675 7.93214 3.75 7.5 3.75C7.06786 3.75 6.69805 3.89675 6.39057 4.19025C6.08257 4.48425 5.92857 4.8375 5.92857 5.25C5.92857 5.6625 6.08257 6.0155 6.39057 6.309C6.69805 6.603 7.06786 6.75 7.5 6.75ZM2 15V13.5H13V15H2Z" fill="#FF983B"/>
</g>
</svg>
