<svg width="12" height="12" viewBox="0 0 12 12" fill="none" xmlns="http://www.w3.org/2000/svg">
<path fill-rule="evenodd" clip-rule="evenodd" d="M4.94323 0.0538906C2.74611 0.475432 0.984605 2.01863 0.28212 4.13738C-0.0939479 5.27164 -0.0940483 6.74094 0.281869 7.87693C0.931491 9.8398 2.49841 11.3162 4.51902 11.8694C4.95719 11.9894 5.07752 12 6 12C6.92247 12 7.04281 11.9894 7.48097 11.8694C9.50098 11.3164 11.0666 9.84106 11.7179 7.87693C12.094 6.74235 12.094 5.27195 11.7179 4.13738C11.0656 2.1701 9.48436 0.681469 7.48097 0.148556C7.08292 0.0427028 6.86293 0.0187578 6.1506 0.00382395C5.57594 -0.00822442 5.18154 0.00812705 4.94323 0.0538906ZM5.74898 3.04123C5.48617 3.15898 5.35806 3.34502 5.33341 3.64466C5.31307 3.89241 5.32477 3.93098 5.47197 4.10002C5.78493 4.45944 6.21592 4.45843 6.53019 4.09754C6.67502 3.93119 6.68687 3.89175 6.66659 3.64466C6.64154 3.34026 6.51161 3.15584 6.24007 3.03915C6.04156 2.95385 5.94297 2.95426 5.74898 3.04123ZM5.53939 5.01483C5.2067 5.16721 5.09705 5.58698 5.31087 5.88976C5.4182 6.04173 5.42267 6.092 5.42267 7.14258V8.23711L5.30374 8.28267C4.8729 8.44786 4.86406 9.11234 5.28998 9.31615C5.53316 9.43253 6.46683 9.43253 6.71001 9.31615C7.13468 9.11295 7.12725 8.44791 6.69842 8.28353L6.5817 8.23878L6.56694 6.76949L6.55223 5.30025L6.39795 5.14473C6.27355 5.01934 6.19092 4.98461 5.97123 4.96552C5.79477 4.95018 5.64265 4.96755 5.53939 5.01483Z" fill="#F78D1E"/>
</svg>
