<svg width="26" height="28" viewBox="0 0 26 28" fill="none" xmlns="http://www.w3.org/2000/svg">
<path fill-rule="evenodd" clip-rule="evenodd" d="M21.0143 0.0592192C20.808 0.125169 20.5917 0.318856 19.1501 1.72871C18.2531 2.6059 17.2506 3.59447 16.9222 3.92556L16.3251 4.52752L18.858 7.06195C20.2511 8.45588 21.413 9.59634 21.44 9.59634C21.4671 9.59634 22.4709 8.61174 23.6706 7.40839C25.7622 5.31064 25.8553 5.20973 25.9281 4.96066C26.024 4.63273 26.024 4.42101 25.9279 4.09332C25.8554 3.84593 25.7664 3.74789 24.0595 2.03459C22.8155 0.785858 22.2012 0.202644 22.0512 0.127655C21.7727 -0.0114648 21.3275 -0.0408766 21.0143 0.0592192ZM7.97072 12.9325C3.71839 17.1871 0.525817 20.4175 0.525817 20.4656C0.525817 20.5118 0.407508 21.5898 0.262909 22.8611C0.118309 24.1324 0 25.2629 0 25.3734C0 25.7772 0.220987 26 0.62142 26C0.861719 26 5.36315 25.4995 5.59278 25.4473C5.73127 25.4158 7.38401 23.7747 15.1175 15.9898L20.5246 10.5469L17.9943 8.01518C16.6027 6.62274 15.4532 5.48347 15.4399 5.48347C15.4265 5.48347 12.0654 8.83551 7.97072 12.9325Z" fill="#0335B5"/>
<line x1="0.5" y1="27.5" x2="25.5" y2="27.5" stroke="#0335B5" stroke-linecap="round"/>
</svg>
