<svg width="13" height="13" viewBox="0 0 13 13" fill="none" xmlns="http://www.w3.org/2000/svg">
<path fill-rule="evenodd" clip-rule="evenodd" d="M5.98749 0.209788L5.77893 0.419491V3.07248V5.72538H3.13883H0.498721L0.250401 5.97516C-0.083467 6.31099 -0.083467 6.67793 0.250401 7.01376L0.498721 7.26354H3.13883H5.77893V9.90106C5.77893 12.44 5.78547 12.547 5.95504 12.7637C6.19631 13.0723 6.71572 13.0798 7.01459 12.7791L7.22315 12.5694V9.91644V7.26354H9.86325H12.5034L12.7517 7.01376C12.9212 6.84328 13 6.67835 13 6.49446C13 6.31056 12.9212 6.14564 12.7517 5.97516L12.5034 5.72538H9.86325H7.22315V3.07248V0.419491L7.01459 0.209788C6.87067 0.0649446 6.71164 0 6.50104 0C6.29044 0 6.13141 0.0649446 5.98749 0.209788Z" fill="white"/>
</svg>
