<svg width="59" height="59" viewBox="0 0 59 59" fill="none" xmlns="http://www.w3.org/2000/svg">
<rect width="58.1538" height="58.1538" rx="15" fill="white"/>
<path fill-rule="evenodd" clip-rule="evenodd" d="M31.7816 20.0605V27.4288H39.1229C46.025 27.4288 46.4641 27.4145 46.4615 27.19C46.4535 26.458 46.0333 23.9552 45.7835 23.1508C44.0874 17.6901 39.6161 13.8248 33.9231 12.8982C33.2314 12.7855 32.4664 12.6931 32.2234 12.6928L31.7816 12.6923V20.0605ZM26.2756 16.3907C22.4327 16.8849 18.709 19.0589 16.4092 22.1507C11.5432 28.6926 12.832 37.8224 19.3132 42.7242C21.1771 44.1337 23.0768 44.9722 25.4465 45.4312C31.5081 46.6052 37.7483 43.7443 40.8857 38.3528C41.9682 36.4923 42.6166 34.3728 42.8605 31.8975L42.9511 30.9765H35.51H28.0689L28.1239 23.6423L28.1789 16.3082L27.7031 16.2882C27.4414 16.2773 26.799 16.3233 26.2756 16.3907ZM37.2196 17.468V18.0138H36.601C34.698 18.0138 33.8361 20.0642 35.1914 21.3674C35.519 21.6825 35.7633 21.7784 36.3778 21.8334L37.1516 21.9026V22.6531V23.4035L36.166 23.4437L35.1804 23.4838V24.0236V24.5634H36.2H37.2196V25.1092V25.655H37.8314H38.4432V25.1092V24.5634L39.0889 24.5628C40.2422 24.562 41.0434 23.8291 41.0594 22.7606C41.0775 21.5627 40.2781 20.7443 39.0889 20.7433L38.4432 20.7428V19.9923V19.2418H39.4628H40.4824V18.6278V18.0138H39.4628H38.4432V17.468V16.9222H37.8314H37.2196V17.468ZM35.9377 19.4562C35.4085 19.9875 35.8995 20.7428 36.7741 20.7428H37.2196V19.9923V19.2418H36.6855C36.3812 19.2418 36.0596 19.3341 35.9377 19.4562ZM38.4704 22.619L38.5111 23.4035L38.9712 23.3814C39.97 23.3334 40.2698 22.2973 39.3754 21.9845C38.5137 21.683 38.425 21.7453 38.4704 22.619Z" fill="#16DBCC"/>
<path d="M34.4615 16.6923V25.1923L41.4615 25.6923L41.9615 24.1923L41.4615 19.1923L39.4615 16.6923H34.4615Z" fill="#16DBCC" stroke="#16DBCC"/>
<path d="M39.1695 20.5883C39.0705 20.9573 38.8905 21.2363 38.6295 21.4343C38.3595 21.6323 38.0715 21.7763 37.7475 21.8663L39.8985 24.7013H38.4225L36.9105 22.6763C36.7305 22.4423 36.5775 22.2713 36.4335 22.1633C36.2895 22.0553 36.1455 22.0103 35.9925 22.0103H35.9115V21.2633H36.4425C36.6045 21.2633 36.7575 21.2543 36.9105 21.2363C37.0635 21.2183 37.2075 21.1913 37.3335 21.1463C37.4595 21.1013 37.5765 21.0383 37.6755 20.9483C37.7745 20.8583 37.8465 20.7413 37.9005 20.5883H35.7495L36.0195 19.7873H37.9185C37.8645 19.5893 37.7475 19.4363 37.5855 19.3463C37.4145 19.2563 37.1895 19.2113 36.9015 19.1933H35.7495L36.0195 18.3923H40.0515L39.7815 19.1933H39.0255C39.1155 19.3733 39.1785 19.5713 39.2145 19.7873H40.0515L39.7815 20.5883H39.1695Z" fill="white"/>
</svg>
