<svg width="60" height="61" viewBox="0 0 60 61" fill="none" xmlns="http://www.w3.org/2000/svg">
<rect width="60" height="61" rx="15" fill="#EBE2FF"/>
<path fill-rule="evenodd" clip-rule="evenodd" d="M18.7756 15.1836C18.3664 15.3698 18 15.9486 18 16.4089C18 16.5573 18.0839 16.8483 18.1863 17.0557C18.5803 17.8529 18.1678 17.8224 28.5872 17.8219C37.7739 17.8215 38.0939 17.8134 38.4729 17.5716C39.3145 17.0347 39.2257 15.6431 38.3212 15.194C37.971 15.0201 36.7536 14.9961 28.5441 15.0005C20.8316 15.0046 19.0973 15.0371 18.7756 15.1836ZM20.0059 18.5392C19.8513 18.9607 20.0612 23.3903 20.2702 24.1189C20.7078 25.6442 21.4886 26.4528 23.7112 27.6832C25.1807 28.4967 25.1761 28.6062 23.6374 29.4485C22.0444 30.3205 21.5112 30.7277 20.9908 31.4694C20.2303 32.5533 20.0617 33.3487 19.9947 36.1657L19.936 38.6393H20.8103H21.6846L21.6854 37.7077C21.6863 36.3688 21.8542 35.8731 22.5455 35.1686C23.1719 34.5304 24.7575 33.6103 26.1062 33.1026C26.7811 32.8485 27.1419 32.8018 28.4398 32.8007C29.8033 32.7994 30.0836 32.8391 30.9454 33.1549C33.0711 33.9339 34.4973 34.8865 35.1448 35.9596C35.4417 36.4516 35.4488 36.4548 36.2443 36.4548C36.8529 36.4548 37.0624 36.4073 37.1177 36.2564C37.2695 35.8426 36.9448 33.2956 36.6394 32.5046C36.1225 31.1656 35.5774 30.6437 33.4402 29.4417C32.5597 28.9465 32.1271 28.6323 32.1506 28.5051C32.17 28.3998 32.7836 27.9902 33.5142 27.5948C35.1346 26.718 36.0046 25.9452 36.4554 24.9818C36.9713 23.8796 37.0861 23.0989 37.0926 20.6494L37.0986 18.4007L28.5897 18.3676C20.9037 18.3378 20.0736 18.3544 20.0059 18.5392ZM24.0074 23.3839C23.5068 23.7369 23.2854 24.1582 23.2835 24.7614C23.2815 25.4422 23.6753 25.9822 24.6608 26.6499C25.8371 27.4469 27.7709 28.4879 28.0752 28.4879C28.2834 28.4879 28.317 28.5769 28.317 29.1303C28.317 29.6871 28.3497 29.7728 28.5626 29.7728C28.7754 29.7728 28.8082 29.6871 28.8082 29.1303C28.8082 28.5953 28.8456 28.4879 29.0312 28.4879C29.3303 28.4879 31.3569 27.4038 32.4644 26.6516C32.9553 26.318 33.4663 25.8575 33.6 25.6281C34.4348 24.1957 32.9444 22.5164 31.5478 23.316C31.3318 23.4395 30.6962 23.8686 30.1353 24.2694C29.5743 24.6703 28.97 25.0361 28.7924 25.0826C28.4012 25.1848 27.6095 24.7912 26.5256 23.9557C26.1145 23.6388 25.6622 23.3146 25.5204 23.2352C25.1062 23.0034 24.4567 23.0671 24.0074 23.3839ZM24.1165 23.9963C23.7965 24.331 23.7527 24.4545 23.8136 24.8475C23.8528 25.1004 23.973 25.4091 24.0806 25.5335C24.3722 25.8706 27.0713 27.548 27.6888 27.776C28.7454 28.166 29.482 27.9381 31.5717 26.5755L32.7999 25.7746L32.0016 25.8784C31.5625 25.9355 30.6727 25.9807 30.024 25.979C28.9112 25.9761 28.7923 25.9487 27.91 25.4925C27.3959 25.2267 26.5766 24.6931 26.0894 24.307C25.0369 23.4728 24.6719 23.4152 24.1165 23.9963ZM31.0701 24.2795C30.592 24.6506 30.0533 25.0362 29.873 25.1365C29.0915 25.5712 29.689 25.6356 31.789 25.3432C32.5166 25.2418 33.1659 25.1239 33.2321 25.0811C33.473 24.9253 33.3487 24.352 32.9936 23.9805C32.4646 23.427 32.0946 23.4845 31.0701 24.2795ZM26.644 33.5579C24.6309 34.1025 22.8351 35.2332 22.3761 36.2451C22.2457 36.5327 22.1759 37.0266 22.1759 37.6628V38.6393H25.4807H28.7855L29.5644 37.8249C30.6499 36.6902 31.2805 36.4548 33.2345 36.4548C34.9614 36.4548 35.008 36.4024 34.0833 35.4974C32.9393 34.3779 30.0713 33.2336 28.4471 33.2486C28.0716 33.2521 27.2601 33.3912 26.644 33.5579ZM31.2984 37.1785C30.5984 37.4417 29.6046 38.4018 29.2024 39.2037C28.9202 39.766 28.8731 40.0164 28.8731 40.9523C28.8731 41.8934 28.9195 42.1373 29.2091 42.7149C29.6552 43.6047 30.2945 44.2529 31.1313 44.6633L31.8173 45H36.4231H41.0289L41.8037 44.6257C42.8484 44.1211 43.4727 43.3674 43.8108 42.2027C44.3898 40.2084 43.615 38.284 41.8273 37.2755C41.4293 37.051 41.0417 37.0312 36.6074 37.0081C32.59 36.9873 31.7336 37.0148 31.2984 37.1785ZM18.5049 39.6107C18.026 40.0323 17.906 40.6421 18.1823 41.2512C18.5687 42.1028 18.6571 42.116 23.7711 42.0782L28.3321 42.0445L28.3671 40.9523C28.3863 40.3515 28.4446 39.73 28.4966 39.5709L28.5912 39.2818H23.7349H18.8785L18.5049 39.6107ZM31.7946 39.7269C31.3854 39.9131 31.019 40.492 31.019 40.9523C31.019 41.3294 31.3347 41.9269 31.6598 42.1652C31.8102 42.2756 32.1477 42.3658 32.4097 42.3658C33.0372 42.3658 33.7211 41.699 33.7211 41.0872C33.7211 40.4879 33.3924 39.9285 32.9186 39.7214C32.4101 39.4992 32.2938 39.4997 31.7946 39.7269ZM35.8477 39.7269C35.4385 39.9131 35.0721 40.492 35.0721 40.9523C35.0721 41.3294 35.3878 41.9269 35.7129 42.1652C35.8633 42.2756 36.2008 42.3658 36.4628 42.3658C37.0903 42.3658 37.7742 41.699 37.7742 41.0872C37.7742 40.4879 37.4455 39.9285 36.9717 39.7214C36.4632 39.4992 36.3469 39.4997 35.8477 39.7269ZM39.9176 39.7194C39.7118 39.8133 39.4493 40.0402 39.3342 40.2238C38.7704 41.1243 39.4322 42.3658 40.4762 42.3658C40.8991 42.3658 41.0674 42.287 41.4097 41.9289C41.7077 41.617 41.8273 41.3762 41.8273 41.0872C41.8273 40.4879 41.4986 39.9285 41.0247 39.7214C40.5191 39.5004 40.3987 39.5002 39.9176 39.7194ZM32.0304 40.186C31.4601 40.4258 31.4326 41.4047 31.9876 41.7154C32.3675 41.9281 32.6723 41.8777 32.9628 41.5544C33.3126 41.1647 33.3008 40.7578 32.9283 40.3682C32.6056 40.0305 32.4672 40.0024 32.0304 40.186ZM35.8649 40.3682C35.6991 40.5417 35.5634 40.8045 35.5634 40.9523C35.5634 41.3145 36.0975 41.8518 36.4575 41.8518C36.8179 41.8518 37.2829 41.3551 37.2829 40.9703C37.2829 40.6087 36.762 40.0528 36.4231 40.0528C36.2819 40.0528 36.0307 40.1948 35.8649 40.3682ZM40.1464 40.1833C39.8571 40.3041 39.6165 40.6811 39.6165 41.0139C39.6165 41.3098 40.1727 41.8518 40.4762 41.8518C40.7989 41.8518 41.336 41.3024 41.336 40.9723C41.336 40.4155 40.6618 39.9685 40.1464 40.1833Z" fill="#6226EF"/>
</svg>
