<svg width="60" height="61" viewBox="0 0 60 61" fill="none" xmlns="http://www.w3.org/2000/svg">
<rect width="60" height="61" rx="15" fill="#FFE2E1"/>
<g clip-path="url(#clip0_855_785)">
<path fill-rule="evenodd" clip-rule="evenodd" d="M39.9484 17.1617C38.4531 17.6509 37.1526 18.8126 36.4984 20.2436C36.1816 20.9369 36.1238 21.2694 36.1166 22.4437C36.1085 23.7812 36.1272 23.8647 36.6816 24.9561C37.1325 25.8437 37.4366 26.2314 38.104 26.7693C39.2225 27.6709 40.0877 27.9635 41.6277 27.9607C42.6955 27.9587 42.9659 27.9021 43.8128 27.5019C45.0061 26.938 46.0252 25.9419 46.5804 24.7965C46.9549 24.0242 46.9976 23.7905 46.9999 22.4985C47.0021 21.237 46.9552 20.9592 46.619 20.2379C46.0868 19.0967 45.0763 18.0607 43.9548 17.5068C43.1658 17.1172 42.84 17.0419 41.7893 17.0062C41.0173 16.9799 40.3254 17.0384 39.9484 17.1617ZM31.256 18.375C30.9259 18.7407 30.9545 18.8914 31.4637 19.4732L31.9086 19.9816H31.4575C30.6867 19.9816 28.8451 20.4167 27.7319 20.8618C24.1694 22.2865 21.4112 25.7362 20.7761 29.5619L20.6779 30.1533L21.3614 29.9791C22.1203 29.7858 22.1405 29.76 22.488 28.539C22.936 26.9652 23.6708 25.7572 24.9903 24.4253C26.0122 23.3936 26.4423 23.0765 27.5779 22.5165C28.8527 21.888 30.4343 21.428 31.3413 21.4223C31.8258 21.4192 31.8296 21.4818 31.3771 22.0213C30.9487 22.532 30.9433 22.5888 31.2812 23.0076C31.4765 23.2495 31.6344 23.3101 31.8978 23.2438C32.4075 23.1153 34.3161 21.0998 34.3161 20.6899C34.3161 20.2664 32.1999 18.1119 31.7838 18.1119C31.624 18.1119 31.3864 18.2303 31.256 18.375ZM41.0543 19.0449C41.0543 19.3141 40.9363 19.4519 40.5766 19.6026C39.6176 20.0046 39.1604 21.0125 39.5322 21.9052C39.8232 22.6041 40.5086 23.0007 41.4263 23.0013C42.3489 23.002 42.7728 23.3669 42.5137 23.9373C42.3714 24.2508 42.2594 24.2963 41.6295 24.2963C41.0855 24.2963 40.8477 24.2255 40.6626 24.0086C40.5098 23.8296 40.2397 23.721 39.9472 23.721C39.5455 23.721 39.4773 23.7716 39.4773 24.0695C39.4773 24.4871 40.208 25.2645 40.6612 25.3292C40.9072 25.3642 40.9932 25.4847 41.0275 25.8424C41.0686 26.2702 41.1141 26.3098 41.5651 26.3098C42.0095 26.3098 42.0578 26.2702 42.0578 25.9059C42.0578 25.5747 42.1583 25.4576 42.6177 25.2544C43.9364 24.6708 44.0682 23.0009 42.8587 22.2057C42.6704 22.082 42.1137 21.9354 41.6214 21.8801C40.6311 21.7686 40.2805 21.4838 40.5681 21.0243C40.681 20.8438 40.9521 20.7605 41.5264 20.7298C42.2115 20.6931 42.3497 20.7295 42.4842 20.9815C42.5962 21.1913 42.7843 21.276 43.1381 21.276C43.5649 21.276 43.6349 21.2281 43.6349 20.9359C43.6349 20.4748 43.1166 19.8463 42.5355 19.6026C42.1758 19.4519 42.0578 19.3141 42.0578 19.0449C42.0578 18.7319 41.995 18.6872 41.5561 18.6872C41.1171 18.6872 41.0543 18.7319 41.0543 19.0449ZM30.6603 24.2925C29.0298 24.6544 27.8132 25.3505 26.7266 26.5431C25.6386 27.7374 24.854 29.5944 24.854 30.9753C24.854 31.4551 28.6351 37.6885 29.0623 37.9131C29.6286 38.2107 31.1583 38.5303 32.028 38.5326C34.6629 38.5396 37.2711 36.8839 38.395 34.4906C39.1821 32.8148 39.3253 31.3434 38.8788 29.5206C38.7514 29.0001 38.6093 28.8406 37.8129 28.324C36.7635 27.643 36.0114 26.8043 35.3898 25.6212C34.9944 24.8685 34.8933 24.7781 34.1842 24.5416C33.2757 24.2389 31.4757 24.1116 30.6603 24.2925ZM31.4775 26.3386C31.3566 26.4598 31.3054 27.2695 31.3054 29.061C31.3054 31.1871 31.3428 31.6482 31.5306 31.8368C31.7144 32.021 32.1326 32.0627 33.7958 32.0627C35.9991 32.0627 36.1798 32.0063 36.1798 31.3199C36.1798 30.747 35.8277 30.6245 34.1822 30.6245H32.7391V28.6333C32.7391 26.8868 32.7068 26.6128 32.4769 26.404C32.1689 26.1244 31.7202 26.0951 31.4775 26.3386ZM42.0948 30.0851C42.0168 30.1841 41.9162 30.9558 41.8707 31.8004C41.5854 37.1156 37.2691 41.2674 32.0286 41.2674H30.7905L30.8687 41.9505L30.947 42.6337L32.524 42.6186C33.8943 42.6055 34.2795 42.5434 35.463 42.1438C40.0367 40.6002 42.9963 36.7262 43.3028 31.8824C43.3805 30.6535 43.3593 30.4438 43.1325 30.1924C42.8409 29.8691 42.3082 29.814 42.0948 30.0851ZM21.4673 31.5435C21.0962 31.7111 20.4982 32.6186 17.9829 36.8301C15.041 41.7559 14.9484 41.9346 15.0116 42.5572C15.0614 43.0473 15.1828 43.2945 15.5233 43.5999L15.9699 44L22.0965 43.9994C27.9161 43.999 28.246 43.9849 28.6813 43.7187C29.3333 43.3199 29.582 42.4576 29.2478 41.7545C28.7425 40.6915 23.6547 32.2603 23.2883 31.8786C22.8272 31.3982 22.089 31.2625 21.4673 31.5435ZM21.4879 34.6482C21.2492 34.9128 21.2435 35.0726 21.4042 36.9639C21.4991 38.0813 21.6089 39.0795 21.6483 39.1824C21.7634 39.4834 22.2517 39.5344 22.5495 39.2764C22.7779 39.0785 22.8526 38.7016 22.9899 37.0521C23.1366 35.2917 23.1293 35.026 22.9261 34.7149C22.6341 34.2677 21.8634 34.2318 21.4879 34.6482ZM21.5071 40.6675C21.1921 41.0165 21.2053 41.7395 21.5321 42.0361C21.88 42.3521 22.6007 42.3388 22.8963 42.0111C23.2113 41.662 23.1981 40.939 22.8714 40.6425C22.5234 40.3265 21.8027 40.3397 21.5071 40.6675Z" fill="#FF5452"/>
</g>
<defs>
<clipPath id="clip0_855_785">
<rect width="32.3502" height="32.3502" fill="white" transform="translate(14.5527 14.0769)"/>
</clipPath>
</defs>
</svg>
