<svg width="60" height="61" viewBox="0 0 60 61" fill="none" xmlns="http://www.w3.org/2000/svg">
<rect width="60" height="61" rx="15" fill="#FFE0EB"/>
<g clip-path="url(#clip0_855_749)">
<path fill-rule="evenodd" clip-rule="evenodd" d="M20.1535 14.2187C19.6349 14.4319 18.8912 15.16 18.5968 15.7428C18.4052 16.1221 18.3677 18.3957 18.3677 29.6508C18.3677 44.6092 18.3089 43.7999 19.4616 44.709C19.8744 45.0345 20.2679 45.17 20.9493 45.2209C21.8251 45.2865 21.9795 45.2341 23.7732 44.2652C24.8168 43.7015 25.7523 43.2402 25.8522 43.2402C25.952 43.2402 26.8475 43.8049 27.8422 44.495C30.5376 46.3654 30.7975 46.3589 33.7666 44.3473C34.6654 43.7384 35.4773 43.2402 35.5708 43.2402C35.6643 43.2402 36.5947 43.7015 37.6383 44.2652C39.432 45.2341 39.5864 45.2865 40.4622 45.2209C41.1436 45.17 41.5371 45.0345 41.9499 44.709C43.1022 43.8002 43.0438 44.5994 43.0438 29.7378C43.0438 18.7602 43.0039 16.2733 42.8203 15.8298C42.55 15.1764 41.8288 14.4521 41.2069 14.2092C40.6007 13.9723 20.7308 13.9814 20.1535 14.2187ZM23.4029 19.5211C23.0238 20.0194 23.0664 20.6034 23.5193 21.1231C23.7489 21.3867 24.1576 21.4169 27.4841 21.4169C30.9764 21.4169 31.2118 21.3973 31.5175 21.0812C31.9348 20.6496 31.9348 19.834 31.5175 19.4024C31.2116 19.0862 30.9764 19.0667 27.4707 19.0667H23.7485L23.4029 19.5211ZM34.6138 19.509C34.4288 19.7523 34.2773 20.082 34.2773 20.2418C34.2773 20.4016 34.4288 20.7313 34.6138 20.9746C34.9288 21.3887 35.0358 21.4169 36.2933 21.4169C37.8105 21.4169 38.2276 21.1636 38.2276 20.2418C38.2276 19.32 37.8105 19.0667 36.2933 19.0667C35.0358 19.0667 34.9288 19.0949 34.6138 19.509ZM23.7622 24.0473C23.6487 24.0946 23.442 24.3607 23.3029 24.6389C23.0945 25.0557 23.0847 25.2311 23.2474 25.6373C23.356 25.9083 23.5761 26.2027 23.7365 26.2915C23.8974 26.3805 25.5906 26.453 27.5074 26.453C30.7814 26.453 31.0119 26.4326 31.4144 26.105C31.7246 25.8527 31.8421 25.6024 31.8421 25.194C31.8421 24.7856 31.7246 24.5353 31.4144 24.283C31.0103 23.9543 30.7923 23.9356 27.4776 23.9482C25.5476 23.9554 23.8757 24.0001 23.7622 24.0473ZM34.6758 24.3471C34.4567 24.5737 34.2773 24.9548 34.2773 25.194C34.2773 25.4332 34.4567 25.8143 34.6758 26.0409C35.0273 26.4045 35.2138 26.4524 36.2587 26.4477C37.4926 26.4421 37.8181 26.3051 38.156 25.6493C38.3925 25.1903 38.2721 24.7144 37.8055 24.265C37.5293 23.9989 37.2316 23.935 36.2686 23.935C35.2169 23.935 35.0267 23.9842 34.6758 24.3471ZM23.4122 29.4134C23.2271 29.6567 23.0756 29.9864 23.0756 30.1462C23.0756 30.306 23.2271 30.6357 23.4122 30.879L23.7485 31.3213H27.4707C30.9764 31.3213 31.2116 31.3018 31.5175 30.9856C31.9348 30.554 31.9348 29.7384 31.5175 29.3068C31.2116 28.9906 30.9764 28.9711 27.4707 28.9711H23.7485L23.4122 29.4134ZM34.6138 29.4134C34.4288 29.6567 34.2773 29.9864 34.2773 30.1462C34.2773 30.306 34.4288 30.6357 34.6138 30.879C34.9288 31.2931 35.0358 31.3213 36.2933 31.3213C37.8105 31.3213 38.2276 31.068 38.2276 30.1462C38.2276 29.2244 37.8105 28.9711 36.2933 28.9711C35.0358 28.9711 34.9288 28.9993 34.6138 29.4134ZM23.7109 34.0546C23.006 34.6143 22.9636 35.4086 23.606 36.0274C23.9247 36.3344 24.1932 36.3574 27.4677 36.3574C30.7819 36.3574 31.0116 36.3371 31.4144 36.0094C31.7246 35.7571 31.8421 35.5068 31.8421 35.0984C31.8421 34.69 31.7246 34.4397 31.4144 34.1874C31.0111 33.8594 30.7859 33.8397 27.4776 33.8447C24.9754 33.8484 23.8947 33.9087 23.7109 34.0546ZM34.6758 34.2515C34.4567 34.4781 34.2773 34.8592 34.2773 35.0984C34.2773 35.3376 34.4567 35.7187 34.6758 35.9453C35.0273 36.3089 35.2138 36.3568 36.2587 36.3521C37.4926 36.3465 37.8181 36.2096 38.156 35.5537C38.3925 35.0947 38.2721 34.6188 37.8055 34.1694C37.5293 33.9033 37.2316 33.8394 36.2686 33.8394C35.2169 33.8394 35.0267 33.8886 34.6758 34.2515Z" fill="#FF82AC"/>
</g>
<defs>
<clipPath id="clip0_855_749">
<rect width="32.3502" height="32.3502" fill="white" transform="translate(14.5527 14.0769)"/>
</clipPath>
</defs>
</svg>
