<svg width="25" height="25" viewBox="0 0 25 25" fill="none" xmlns="http://www.w3.org/2000/svg">
<g clip-path="url(#clip0_878_363)">
<g clip-path="url(#clip1_878_363)">
<path d="M14.4906 15.3372C18.6856 15.3372 22.0985 11.8971 22.0985 7.66863C22.0985 3.44019 18.6856 0 14.4906 0C10.2957 0 6.88281 3.44014 6.88281 7.66858C6.88281 11.897 10.2957 15.3372 14.4906 15.3372ZM12.046 10.0616C12.2673 9.72331 12.721 9.62835 13.0593 9.84975C13.5522 10.1722 13.7382 10.2019 14.3886 10.1973C15.0235 10.1931 15.3919 9.71994 15.4654 9.28202C15.5013 9.06901 15.515 8.54886 14.8703 8.32097C14.1142 8.05365 13.3403 7.74812 12.802 7.32586C12.2636 6.9036 12.0171 6.17464 12.1587 5.42358C12.3121 4.60936 12.8801 3.96121 13.641 3.73205C13.6479 3.73 13.6546 3.72835 13.6615 3.7263V3.44882C13.6615 3.04457 13.9892 2.71684 14.3935 2.71684C14.7977 2.71684 15.1255 3.04457 15.1255 3.44882V3.68018C15.6226 3.79886 15.9698 4.02631 16.1108 4.13167C16.4346 4.37376 16.5009 4.83242 16.2588 5.15625C16.0168 5.48009 15.5581 5.54635 15.2343 5.30421C15.0843 5.19207 14.6697 4.95101 14.0632 5.13376C13.7089 5.24053 13.617 5.59013 13.5973 5.6947C13.5586 5.9002 13.602 6.09281 13.7055 6.17391C14.0786 6.46661 14.7504 6.72578 15.3582 6.94064C16.4791 7.33684 17.1024 8.37529 16.9092 9.5247C16.8143 10.0887 16.5306 10.6119 16.1102 10.9981C15.8239 11.2613 15.4906 11.4488 15.1255 11.556V11.8883C15.1255 12.2926 14.7977 12.6203 14.3935 12.6203C13.9892 12.6203 13.6615 12.2926 13.6615 11.8883V11.629C13.1882 11.5716 12.7909 11.4236 12.2578 11.0748C11.9196 10.8535 11.8247 10.3999 12.046 10.0616Z" fill="white"/>
<path d="M2.77406 17.7967H1.10503C0.700781 17.7967 0.373047 18.1245 0.373047 18.5287V24.267C0.373047 24.6712 0.700781 24.999 1.10503 24.999H2.77411V17.7967H2.77406Z" fill="white"/>
<path d="M24.4118 17.7456C23.0399 16.3736 20.8075 16.3736 19.4356 17.7456L17.2428 19.9383L16.3441 20.8371C15.9809 21.2003 15.4882 21.4043 14.9746 21.4043H10.6044C10.2097 21.4043 9.87009 21.101 9.85149 20.7068C9.83168 20.2858 10.1671 19.9383 10.5837 19.9383H15.0257C15.9188 19.9383 16.6934 19.3025 16.8469 18.4227C16.8822 18.2206 16.9006 18.0129 16.9006 17.8009C16.9007 17.3959 16.5725 17.0673 16.1676 17.0673H13.7337C12.9382 17.0673 12.1744 16.7065 11.3656 16.3244C10.5174 15.9237 9.64024 15.5094 8.61463 15.4411C7.71761 15.3814 6.81853 15.4796 5.94225 15.7326C5.00399 16.0036 4.32954 16.8371 4.24775 17.7996C4.24463 17.7993 4.24145 17.7993 4.23828 17.7991V24.9965L16.8493 25C17.7163 25 18.5316 24.6623 19.1448 24.0491L24.4117 18.7822C24.6981 18.4961 24.6981 18.0319 24.4118 17.7456Z" fill="white"/>
</g>
</g>
<defs>
<clipPath id="clip0_878_363">
<rect width="25" height="25" fill="white"/>
</clipPath>
<clipPath id="clip1_878_363">
<rect width="25" height="25" fill="white"/>
</clipPath>
</defs>
</svg>
