<svg width="25" height="25" viewBox="0 0 25 25" fill="none" xmlns="http://www.w3.org/2000/svg">
<path fill-rule="evenodd" clip-rule="evenodd" d="M3 12.4384V23.8768L3.25642 24.2475C3.93657 25.2307 5.2039 25.2062 5.9865 24.1946C6.2026 23.9154 6.2235 23.7026 6.27591 21.2572C6.3403 18.2503 6.31602 18.3099 7.26106 18.8448L7.78814 19.143L8.39148 18.8279L8.99481 18.5127L9.57645 18.8284L10.1581 19.1442L10.7587 18.8305L11.3592 18.5167L11.9597 18.8305L12.5604 19.1442L13.1458 18.8267L13.7314 18.5091L14.3124 18.8241L14.8933 19.1392L15.4993 18.8241C16.157 18.4823 16.1073 18.4761 16.9766 19.0053C17.2035 19.1435 17.2894 19.1267 17.8477 18.8351L18.4669 18.5115L18.8386 18.7204C19.0429 18.8354 19.2999 18.9821 19.4098 19.0465C19.5662 19.1382 19.7255 19.1001 20.1441 18.8709L20.6786 18.5781V13.9193V9.26047L20.2268 9.13C19.4471 8.90495 18.8585 8.55411 18.3804 8.02971C17.9594 7.56782 17.4592 6.56473 17.4592 6.18247C17.4592 6.06629 17.258 6.01971 16.6521 5.99571C15.8058 5.96211 15.5385 5.80622 15.6867 5.43302C15.7436 5.28989 15.9244 5.25455 16.5994 5.25455H17.4412L17.5207 4.9C17.806 3.62538 19.0481 2.42582 20.368 2.15025C20.7217 2.0764 20.7351 2.05393 20.7351 1.53684V1H11.8676H3V12.4384ZM20.2514 3.00465C19.5873 3.24378 19.1042 3.61 18.7022 4.1788C17.947 5.24756 18.1604 6.82949 19.1796 7.7188C19.7861 8.24789 20.3195 8.45004 21.1305 8.45778C22.72 8.47305 23.879 7.41084 23.989 5.83807C24.0431 5.06451 23.9024 4.57087 23.4599 3.98135C22.81 3.11549 21.2567 2.64269 20.2514 3.00465ZM21.4598 5.19389C21.1618 5.52727 20.8791 5.8 20.8317 5.8C20.7843 5.8 20.6148 5.67389 20.4552 5.51975C20.1375 5.21309 19.8668 5.20545 19.6761 5.49782C19.5741 5.65425 19.6484 5.78015 20.1116 6.23418C20.4188 6.53538 20.7575 6.78182 20.8641 6.78182C21.1335 6.78182 22.599 5.18385 22.599 4.89007C22.599 4.71662 22.5204 4.64571 22.3003 4.62116C22.0585 4.59411 21.8986 4.70309 21.4598 5.19389ZM5.53996 5.47796C5.36397 6.0136 5.44214 6.02298 9.8087 5.99222C13.4087 5.96691 13.8896 5.94335 13.9913 5.78756C14.0545 5.69069 14.0744 5.5312 14.0354 5.43302C13.9715 5.27222 13.5505 5.25455 9.78893 5.25455C5.67992 5.25455 5.61215 5.25815 5.53996 5.47796ZM5.68286 8.64509C5.38656 8.81178 5.43728 9.1696 5.77492 9.29364C6.17526 9.44058 13.5663 9.43458 13.8519 9.28709C13.972 9.22491 14.0703 9.07938 14.0703 8.96364C14.0703 8.84789 13.972 8.70236 13.8519 8.64018C13.5571 8.48789 5.95431 8.49247 5.68286 8.64509ZM15.8495 8.64509C15.5532 8.81178 15.6039 9.1696 15.9416 9.29364C16.3247 9.43436 17.642 9.43 17.9185 9.28709C18.1648 9.15978 18.205 8.85476 18.0014 8.65818C17.8341 8.49662 16.1319 8.48625 15.8495 8.64509ZM5.59023 12.0819C5.48258 12.2072 5.47433 12.3045 5.56052 12.4364C5.66784 12.6007 6.08037 12.6182 9.84655 12.6182H14.0138L14.0519 12.3578C14.0729 12.2145 14.0221 12.0558 13.939 12.0049C13.8559 11.954 11.9769 11.9117 9.76329 11.9107C6.22768 11.9093 5.7207 11.93 5.59023 12.0819ZM15.7569 12.0819C15.6492 12.2072 15.641 12.3045 15.7271 12.4364C15.8249 12.5861 16.0433 12.6182 16.9632 12.6182C18.055 12.6182 18.0814 12.6122 18.1186 12.3578C18.1734 11.9839 17.9759 11.9127 16.8799 11.9107C16.127 11.9094 15.8716 11.9484 15.7569 12.0819ZM5.54041 15.513C5.36589 16.0439 5.45038 16.0547 9.76329 16.0529C11.9769 16.0519 13.8559 16.0096 13.939 15.9588C14.0221 15.9078 14.0729 15.7491 14.0519 15.6059L14.0138 15.3455L9.81401 15.3169C5.65982 15.2886 5.61339 15.2907 5.54041 15.513ZM15.7078 15.5106C15.5682 15.9354 15.826 16.0547 16.8799 16.0529C17.9759 16.0509 18.1734 15.9797 18.1186 15.6059C18.0816 15.3533 18.046 15.3445 16.9314 15.3145C15.8522 15.2853 15.7779 15.2972 15.7078 15.5106ZM8.42536 19.7144C7.97442 20.022 7.67032 20.0505 7.32624 19.8177L7.0836 19.6537L7.04688 21.8087C7.01299 23.7968 6.99051 23.9992 6.756 24.4229C6.61627 24.6756 6.50184 24.9087 6.50184 24.9411C6.50184 24.9735 9.84609 25 13.9334 25H21.365L21.8607 24.7545C22.6939 24.342 22.7684 24.0901 22.7684 21.6892V19.6295L22.49 19.8056C22.1101 20.0461 21.9281 20.0288 21.3111 19.6938L20.7806 19.4059L20.3082 19.6938C19.7215 20.0516 19.6218 20.0514 18.9543 19.6915L18.416 19.4012L17.9399 19.6915C17.3503 20.051 17.1689 20.0534 16.6442 19.7091C16.4157 19.5591 16.1723 19.4364 16.1037 19.4364C16.035 19.4364 15.7917 19.5591 15.5631 19.7091C15.3345 19.8591 15.0441 19.9818 14.9175 19.9818C14.791 19.9818 14.5006 19.8591 14.272 19.7091C14.0434 19.5591 13.8001 19.4364 13.7314 19.4364C13.6628 19.4364 13.4194 19.5591 13.1909 19.7091C12.9623 19.8591 12.6719 19.9818 12.5453 19.9818C12.4188 19.9818 12.1284 19.8591 11.8998 19.7091C11.6712 19.5591 11.4279 19.4364 11.3592 19.4364C11.2905 19.4364 11.0472 19.5591 10.8187 19.7091C10.5901 19.8591 10.2996 19.9818 10.1731 19.9818C10.0466 19.9818 9.75618 19.8591 9.52754 19.7091C9.01955 19.3757 8.92161 19.3761 8.42536 19.7144Z" fill="white"/>
</svg>
