<svg width="25" height="25" viewBox="0 0 25 25" fill="none" xmlns="http://www.w3.org/2000/svg">
<g clip-path="url(#clip0_878_48)">
<g clip-path="url(#clip1_878_48)">
<path fill-rule="evenodd" clip-rule="evenodd" d="M12.2408 0.167842C12.0984 0.311325 12.0741 0.714316 12.0741 2.93269V5.5297L9.82759 7.62596L7.58115 9.72222H5.39541H3.20977L1.67388 11.5526C-0.0775973 13.6399 -0.0561657 13.6095 0.0307294 13.8851C0.07858 14.0372 0.21184 14.0994 0.541171 14.1234L0.986787 14.156L1.01352 19.4444C1.03793 24.2651 1.05618 24.7448 1.21946 24.8665C1.36015 24.9713 3.78493 25 12.4985 25C21.2121 25 23.6369 24.9713 23.7776 24.8665C23.9409 24.7448 23.9591 24.2651 23.9835 19.4444L24.0103 14.156L24.4559 14.1234C24.7862 14.0993 24.9184 14.0373 24.9667 13.884C25.0518 13.614 25.1087 13.695 23.3359 11.5652L21.8019 9.72222H19.6043H17.4067L15.1648 7.62414L12.9229 5.52607V4.74156V3.95705L15.3367 3.92831L17.7504 3.89957L17.7796 2.08387C17.8056 0.470513 17.7885 0.253205 17.6267 0.134081C17.4927 0.0354702 16.7789 0 14.9261 0C12.778 0 12.3831 0.0246794 12.2408 0.167842ZM11.9616 10.1911C10.9585 10.4582 10.3743 11.2144 10.3789 12.24C10.3867 14.0159 12.2811 15.0276 13.718 14.023C15.634 12.6834 14.2163 9.59081 11.9616 10.1911ZM11.7876 11.1068C10.8141 11.7045 10.9621 13.0645 12.0515 13.5318C12.5241 13.7345 13.1359 13.565 13.4987 13.1308C13.8676 12.6893 13.9396 12.3298 13.7616 11.8159C13.4786 10.998 12.5235 10.6549 11.7876 11.1068ZM7.40577 19.1172V24.1453H7.77818H8.15059L8.123 19.1506L8.09542 14.156L7.75059 14.1225L7.40577 14.089V19.1172ZM16.9193 14.1738C16.8804 14.2129 16.8486 16.4725 16.8486 19.1952V24.1453H17.2199H17.5913V19.1239V14.1026H17.2907C17.1253 14.1026 16.9582 14.1346 16.9193 14.1738ZM11.0646 16.4581C10.9251 16.9006 11.1613 16.9872 12.5078 16.9872C13.6399 16.9872 13.7751 16.9668 13.8737 16.7812C13.9339 16.6679 13.9543 16.4997 13.9191 16.4073C13.8655 16.2667 13.6339 16.2393 12.4943 16.2393C11.2161 16.2393 11.1293 16.2526 11.0646 16.4581ZM3.20256 17.2481C3.1703 17.3327 3.16044 17.489 3.1807 17.5953C3.21349 17.7676 3.36266 17.7917 4.56084 17.8183C5.7988 17.8458 5.90914 17.8324 5.96771 17.6464C6.00272 17.5355 6.00123 17.3657 5.96452 17.2693C5.90755 17.1199 5.70363 17.094 4.57951 17.094C3.52934 17.094 3.24935 17.1253 3.20256 17.2481ZM19.0126 17.2449C18.9796 17.3313 18.9693 17.489 18.9895 17.5953C19.023 17.7698 19.1595 17.7885 20.4044 17.7885H21.7822V17.4679V17.1474L20.4273 17.1175C19.3131 17.0929 19.0618 17.1155 19.0126 17.2449ZM10.0611 19.0118C9.98822 19.1489 9.9583 20.0871 9.97666 21.658L10.0052 24.0919L10.4031 24.125L10.8009 24.1582V21.8547V19.5513H11.4375H12.0741V21.8483V24.1453H12.4985H12.9229V21.8483V19.5513H13.5595H14.1961V21.8483V24.1453H14.5693H14.9425L14.9141 21.5011L14.8857 18.8568L12.5298 18.8281C10.2718 18.8005 10.1693 18.8082 10.0611 19.0118ZM3.28521 20.4998C3.20712 20.5497 3.15937 20.7051 3.17911 20.8454C3.21465 21.0993 3.22112 21.1004 4.59267 21.1004C5.83455 21.1004 5.97418 21.0815 6.00728 20.9083C6.08717 20.4907 5.85015 20.4059 4.60773 20.4076C3.9583 20.4085 3.36319 20.45 3.28521 20.4998ZM19.0809 20.5611C19.0106 20.6465 18.9696 20.8027 18.9898 20.9083C19.0229 21.0814 19.1624 21.1004 20.4029 21.1004C21.6434 21.1004 21.7829 21.0814 21.816 20.9083C21.896 20.4901 21.6593 20.406 20.4029 20.406C19.4884 20.406 19.1788 20.4423 19.0809 20.5611Z" fill="white"/>
</g>
</g>
<defs>
<clipPath id="clip0_878_48">
<rect width="25" height="25" fill="white"/>
</clipPath>
<clipPath id="clip1_878_48">
<rect width="25" height="25" fill="white"/>
</clipPath>
</defs>
</svg>
