<svg width="60" height="60" viewBox="0 0 60 60" fill="none" xmlns="http://www.w3.org/2000/svg">
<rect width="60" height="60" rx="15" fill="white"/>
<path fill-rule="evenodd" clip-rule="evenodd" d="M20.7451 13.1268C19.878 13.3652 19.2682 13.8819 18.8564 14.7267L18.5019 15.4539L16.9721 15.4552C15.6318 15.4562 15.3575 15.496 14.7596 15.7754C13.4178 16.4025 12.9611 17.5223 13.0329 20.0084L13.0748 21.4606L26.9829 21.4943L40.891 21.5278V19.5741V17.6205L40.4636 16.9059C39.8606 15.8978 39.0014 15.4539 37.6538 15.4539H36.6824V16.1089C36.6824 17.9524 35.0916 19.8789 33.3326 20.1654C32.793 20.2533 32.4738 20.0478 32.4738 19.6124C32.4738 19.2421 32.6441 19.1095 33.3945 18.8963C34.1946 18.6689 35.1255 17.7066 35.3605 16.8638C35.9964 14.5843 33.8745 12.45 31.6459 13.1276C30.7532 13.399 30.182 13.8866 29.7724 14.7267L29.418 15.4539H27.6099H25.8018L25.7373 16.3582C25.625 17.9325 24.4549 19.5144 23.0461 19.9963C22.0217 20.3467 21.5578 20.2237 21.5578 19.6021C21.5578 19.2422 21.7324 19.1083 22.4784 18.8963C23.2786 18.6689 24.2095 17.7066 24.4445 16.8638C25.0793 14.5882 23.0146 12.5025 20.7451 13.1268ZM20.6231 14.4633C20.3205 14.6285 19.848 15.1892 19.848 15.3832C19.848 15.422 20.6207 15.4539 21.5653 15.4539H23.2824L23.0599 15.0758C22.9374 14.8677 22.6735 14.6004 22.4732 14.4817C22.0295 14.2186 21.0888 14.2092 20.6231 14.4633ZM31.5391 14.4633C31.2365 14.6285 30.7641 15.1892 30.7641 15.3832C30.7641 15.422 31.5368 15.4539 32.4813 15.4539H34.1984L33.9759 15.0758C33.8535 14.8677 33.5895 14.6004 33.3892 14.4817C32.9456 14.2186 32.0048 14.2092 31.5391 14.4633ZM13.0374 31.2628C13.0793 40.8178 13.0132 40.1577 14.0341 41.2276C14.8999 42.1347 14.8232 42.1274 23.1877 42.0892L30.6615 42.0552L33.4135 37.3026C35.3647 33.9326 36.3227 32.4054 36.706 32.0531C37.695 31.1439 39.1656 30.9457 40.3653 31.5601L40.891 31.8293V27.272V22.7148H26.9454H13L13.0374 31.2628ZM17.076 24.9489C16.6938 25.3325 16.6916 25.344 16.6916 26.919C16.6916 28.4307 16.7071 28.5218 17.0321 28.9094L17.3726 29.3156H19.1247H20.8768L21.2173 28.9094C21.5416 28.5224 21.5578 28.4292 21.5578 26.9393C21.5578 25.4494 21.5416 25.3562 21.2173 24.9692L20.8768 24.563H19.1686H17.4605L17.076 24.9489ZM24.9232 24.9692C24.5989 25.3562 24.5827 25.4494 24.5827 26.9393C24.5827 28.4292 24.5989 28.5224 24.9232 28.9094L25.2637 29.3156H27.0158H28.7679L29.1084 28.9094C29.4334 28.5218 29.4489 28.4307 29.4489 26.919C29.4489 25.344 29.4467 25.3325 29.0645 24.9489L28.68 24.563H26.9719H25.2637L24.9232 24.9692ZM32.8143 24.9692C32.4912 25.3546 32.4738 25.4529 32.4738 26.892C32.4738 29.2194 32.5592 29.3056 34.8667 29.3114C36.445 29.3153 36.5564 29.2982 36.9052 28.997L37.2743 28.6784V26.9393V25.2002L36.9052 24.8816C36.5566 24.5806 36.4432 24.563 34.8455 24.563H33.1548L32.8143 24.9692ZM17.8753 26.9393V28.1274H19.1247H20.3741V26.9393V25.7511H19.1247H17.8753V26.9393ZM25.7664 26.9393V28.1274H27.0158H28.2652V26.9393V25.7511H27.0158H25.7664V26.9393ZM33.6575 26.9393V28.1274H34.9069H36.1564V26.9393V25.7511H34.9069H33.6575V26.9393ZM17.3208 32.5814C16.7685 32.9252 16.6636 33.3527 16.7129 35.0594C16.7562 36.5593 16.7671 36.6083 17.1264 36.9183C17.4739 37.218 17.5914 37.2366 19.1422 37.2366C20.787 37.2366 20.7893 37.2361 21.1734 36.8507C21.5541 36.4684 21.5578 36.4503 21.5578 34.9299C21.5578 32.5517 21.3639 32.3499 19.0856 32.3555C17.9995 32.3582 17.5964 32.4098 17.3208 32.5814ZM38.2058 32.5435C37.9225 32.6472 37.5586 32.8693 37.3972 33.037C37.2359 33.2048 35.6952 35.7778 33.9738 38.7548C31.0044 43.89 30.8438 44.2022 30.8416 44.844C30.8387 45.6779 31.3132 46.381 32.1298 46.7533C32.6342 46.9831 33.0976 47 38.9182 47C44.7187 47 45.2038 46.9826 45.7018 46.7555C46.7064 46.2975 47.2289 45.2194 46.9037 44.2758C46.7461 43.8188 41.8532 35.2299 40.8103 33.5795C40.1633 32.5557 39.2093 32.1761 38.2058 32.5435ZM25.3869 33.0955C24.9799 33.3816 25.0437 33.6868 25.6308 34.2621L26.1527 34.7738L25.6308 35.3421C25.0713 35.9514 25.0342 36.0579 25.2449 36.4532C25.4534 36.8441 25.927 36.7612 26.424 36.2465C26.6694 35.9923 26.9357 35.7844 27.0158 35.7844C27.0959 35.7844 27.3622 35.9923 27.6076 36.2465C28.1108 36.7677 28.5785 36.8437 28.7939 36.4395C28.9879 36.0758 28.8747 35.7853 28.3338 35.259L27.878 34.8157L28.4004 34.2469C29.0061 33.5874 29.0447 33.3624 28.6028 33.0717C28.2284 32.8255 28.0027 32.9128 27.4173 33.5301L27.0297 33.9389L26.5625 33.4944C25.9708 32.9315 25.7343 32.8513 25.3869 33.0955ZM17.8753 34.8603V36.0484H19.1247H20.3741V34.8603V33.6721H19.1247H17.8753V34.8603ZM38.3968 38.152C38.3219 38.2925 38.2607 38.9796 38.2607 39.6789C38.2607 41.1605 38.3728 41.4611 38.9261 41.4611C39.2272 41.4611 39.3494 41.3818 39.4476 41.1225C39.6255 40.6526 39.6086 38.6414 39.4231 38.2329C39.2324 37.8126 38.6042 37.7631 38.3968 38.152ZM38.4014 43.028C38.1231 43.55 38.6718 44.1111 39.1889 43.8333C39.3918 43.7243 39.4496 43.5826 39.4191 43.2676C39.3838 42.9021 39.324 42.842 38.9598 42.8066C38.6502 42.7765 38.5047 42.8342 38.4014 43.028Z" fill="#396AFF"/>
</svg>
