<svg width="60" height="60" viewBox="0 0 60 60" fill="none" xmlns="http://www.w3.org/2000/svg">
<rect width="60" height="60" rx="15" fill="white"/>
<path fill-rule="evenodd" clip-rule="evenodd" d="M27.151 15.181C21.3893 16.3577 16.9828 20.4964 15.3879 26.2291C15.0155 27.5674 14.8759 30.8862 15.1265 32.4406C15.4747 34.6007 16.5266 37.1315 17.7788 38.8216C18.6812 40.0398 20.5072 41.8008 21.6563 42.5611C22.8712 43.3648 24.7288 44.2045 26.1018 44.5705C27.6354 44.9793 30.7182 45.13 32.3137 44.8742C36.4311 44.214 40.1444 41.8334 42.5093 38.3374C43.2631 37.223 44.2277 35.0414 44.5729 33.6699C45.015 31.913 45.1395 29.6087 44.8249 29C44.4616 28.2969 43.8973 27.9234 43.1989 27.9242C42.3532 27.9249 41.7614 28.3403 41.2078 29.3218C39.6728 32.0437 36.4286 33.5005 33.3316 32.8586C31.8539 32.5523 31.5952 32.6202 31.2424 33.4072C30.8086 34.3745 29.282 35.9015 28.2057 36.4449C27.0975 37.0045 25.7831 37.2702 24.7809 37.1371C23.8957 37.0196 23.6723 36.8554 23.6723 36.3221C23.6723 35.6913 24.021 35.5133 25.2867 35.4984C26.6833 35.4821 27.7686 35.0302 28.7353 34.0629C29.3678 33.4299 30.151 32.1309 30.151 31.7145C30.151 31.6062 29.9172 31.2909 29.6316 31.0138C28.8594 30.265 27.9521 28.7905 27.6342 27.7686C27.2215 26.4416 27.2537 24.4666 27.7091 23.1753C28.3673 21.3094 29.8342 19.6805 31.6971 18.7471C32.5664 18.3116 32.9099 17.9639 33.0893 17.3381C33.2705 16.7054 33.0446 15.9887 32.4987 15.4648C32.049 15.0334 32.0372 15.031 30.1049 15.0027C28.9048 14.9852 27.7767 15.0533 27.151 15.181ZM21.0682 25.5587C20.4862 25.9138 20.2858 26.2755 20.2858 26.9709C20.2858 27.7619 21.0619 28.5129 21.8794 28.5129C23.4954 28.5129 24.1029 26.3887 22.727 25.5492C22.1481 25.196 21.6582 25.1988 21.0682 25.5587Z" fill="#FF82AC"/>
</svg>
