<svg width="12" height="12" viewBox="0 0 12 12" fill="none" xmlns="http://www.w3.org/2000/svg">
<path fill-rule="evenodd" clip-rule="evenodd" d="M5.8545 0.0324964C5.743 0.0719491 5.63086 0.191334 5.59964 0.303865C5.58322 0.362988 5.57577 1.46789 5.5757 3.85604C5.57563 5.76254 5.57052 7.32238 5.56434 7.32238C5.55816 7.32238 4.94996 6.8195 4.21279 6.20489C3.47561 5.59026 2.84738 5.07785 2.81672 5.06619C2.73417 5.03478 2.54713 5.04047 2.47824 5.07648C2.39735 5.11877 2.30345 5.22061 2.27437 5.29761C2.23883 5.39173 2.2457 5.54666 2.2895 5.63853C2.31889 5.70025 2.74466 6.06718 4.03925 7.1466C4.99359 7.94233 5.79294 8.59258 5.84694 8.61709C5.96871 8.67237 6.03039 8.67237 6.15216 8.61709C6.20616 8.59258 7.00551 7.94233 7.95986 7.1466C9.25444 6.06718 9.68021 5.70025 9.7096 5.63853C9.7534 5.54666 9.76027 5.39173 9.72473 5.29761C9.69565 5.22061 9.60175 5.11877 9.52086 5.07648C9.45197 5.04047 9.26493 5.03478 9.18238 5.06619C9.15172 5.07785 8.52349 5.59026 7.78631 6.20489C7.04914 6.8195 6.44094 7.32238 6.43476 7.32238C6.42858 7.32238 6.42347 5.76254 6.4234 3.85604C6.42331 1.39586 6.41613 0.363904 6.39865 0.300895C6.35407 0.140227 6.15848 -0.00320531 5.98839 5.45092e-05C5.96385 0.000545715 5.9036 0.0151256 5.8545 0.0324964ZM0.275754 8.40531C0.161078 8.44588 0.0510201 8.56592 0.0188419 8.68546C0.00110145 8.75135 -0.00371857 9.07076 0.00273046 9.75338C0.0106523 10.5917 0.0173022 10.746 0.0505292 10.8613C0.205931 11.4004 0.615188 11.8064 1.1572 11.9591C1.29568 11.9981 1.51442 12 5.99955 12C10.4847 12 10.7034 11.9981 10.8419 11.9591C11.3842 11.8063 11.7909 11.4028 11.9482 10.8613C11.9819 10.7455 11.9884 10.5955 11.9964 9.75338C12.0066 8.66637 12.0036 8.63573 11.871 8.50311C11.6463 8.27822 11.2619 8.376 11.1776 8.67947C11.1635 8.73038 11.1545 9.11861 11.1544 9.68267C11.1543 10.5607 11.1522 10.6085 11.1078 10.7274C11.0456 10.8935 10.8852 11.054 10.7192 11.1161L10.5948 11.1627H5.99955H1.40434L1.27991 11.1161C1.11386 11.054 0.953461 10.8935 0.891336 10.7274C0.846929 10.6085 0.844787 10.5607 0.844653 9.68267C0.844586 9.08021 0.836039 8.73185 0.819906 8.67371C0.77532 8.51305 0.579729 8.36961 0.409644 8.37287C0.385098 8.37336 0.324847 8.38794 0.275754 8.40531Z" fill="white"/>
</svg>
