<svg width="12" height="6" viewBox="0 0 12 6" fill="none" xmlns="http://www.w3.org/2000/svg">
<path fill-rule="evenodd" clip-rule="evenodd" d="M0.166172 0.19992C-0.0561571 0.420829 -0.0561571 0.778102 0.166172 0.998465L4.87725 5.66919C4.9811 5.77374 5.10609 5.857 5.24461 5.91388C5.38314 5.97077 5.53231 6.00011 5.68305 6.00011C5.8338 6.00011 5.98297 5.97077 6.12149 5.91388C6.26002 5.857 6.385 5.77374 6.48885 5.66919L11.2347 0.964647C11.3408 0.857876 11.4004 0.716482 11.4014 0.56918C11.4025 0.421878 11.3449 0.279713 11.2404 0.171556C11.1888 0.117977 11.1262 0.0751068 11.0566 0.0456001C10.987 0.0160933 10.9117 0.00057833 10.8356 1.5862e-05C10.7594 -0.000546606 10.684 0.0138554 10.6139 0.0423301C10.5438 0.0708048 10.4805 0.112746 10.4281 0.165556L6.08581 4.47137C6.03388 4.52369 5.97137 4.56535 5.90208 4.59382C5.83279 4.62229 5.75817 4.63697 5.68277 4.63697C5.60736 4.63697 5.53274 4.62229 5.46345 4.59382C5.39416 4.56535 5.33165 4.52369 5.27973 4.47137L0.971684 0.19992C0.919808 0.147616 0.857347 0.105964 0.788105 0.0775011C0.718863 0.049038 0.64429 0.0343594 0.568929 0.0343594C0.493567 0.0343594 0.418994 0.049038 0.349751 0.0775011C0.28051 0.105964 0.218048 0.147616 0.166172 0.19992Z" fill="#00237A"/>
</svg>
