<svg width="22" height="12" viewBox="0 0 22 12" fill="none" xmlns="http://www.w3.org/2000/svg">
<path fill-rule="evenodd" clip-rule="evenodd" d="M0.320639 0.399839C-0.10836 0.841658 -0.10836 1.5562 0.320639 1.99693L9.41104 11.3384C9.61142 11.5475 9.85259 11.714 10.1199 11.8278C10.3872 11.9415 10.675 12.0002 10.9659 12.0002C11.2568 12.0002 11.5446 11.9415 11.8119 11.8278C12.0792 11.714 12.3204 11.5475 12.5207 11.3384L21.6782 1.92929C21.8829 1.71575 21.9979 1.43296 22 1.13836C22.002 0.843756 21.8909 0.559426 21.6892 0.343112C21.5896 0.235954 21.4689 0.150214 21.3346 0.0912001C21.2002 0.0321866 21.0551 0.00115666 20.9081 3.17239e-05C20.7612 -0.00109321 20.6156 0.0277108 20.4803 0.0846602C20.345 0.14161 20.223 0.225492 20.1217 0.331112L11.743 8.94275C11.6428 9.04739 11.5222 9.13071 11.3885 9.18765C11.2548 9.24459 11.1108 9.27395 10.9653 9.27395C10.8198 9.27395 10.6759 9.24459 10.5422 9.18765C10.4085 9.13071 10.2878 9.04739 10.1876 8.94275L1.87494 0.399839C1.77484 0.295232 1.65431 0.211929 1.52071 0.155002C1.3871 0.098076 1.24321 0.0687189 1.09779 0.0687189C0.952374 0.0687189 0.808479 0.098076 0.674871 0.155002C0.541264 0.211929 0.42074 0.295232 0.320639 0.399839Z" fill="#00237A"/>
</svg>
