<svg width="12" height="6" viewBox="0 0 12 6" fill="none" xmlns="http://www.w3.org/2000/svg">
<g clip-path="url(#clip0_253_580)">
<path fill-rule="evenodd" clip-rule="evenodd" d="M0.174894 0.19992C-0.0591059 0.420829 -0.0591059 0.778102 0.174894 0.998465L5.13329 5.66919C5.24259 5.77374 5.37414 5.857 5.51994 5.91388C5.66573 5.97077 5.82273 6.00011 5.98139 6.00011C6.14005 6.00011 6.29705 5.97077 6.44285 5.91388C6.58865 5.857 6.7202 5.77374 6.82949 5.66919L11.8245 0.964647C11.9361 0.857876 11.9989 0.716482 12 0.56918C12.0011 0.421878 11.9405 0.279713 11.8305 0.171556C11.7762 0.117977 11.7103 0.0751068 11.637 0.0456001C11.5637 0.0160933 11.4846 0.00057833 11.4044 1.5862e-05C11.3243 -0.000546606 11.2448 0.0138554 11.1711 0.0423301C11.0973 0.0708048 11.0307 0.112746 10.9755 0.165556L6.40529 4.47137C6.35064 4.52369 6.28485 4.56535 6.21192 4.59382C6.139 4.62229 6.06046 4.63697 5.98109 4.63697C5.90173 4.63697 5.82319 4.62229 5.75027 4.59382C5.67734 4.56535 5.61155 4.52369 5.55689 4.47137L1.02269 0.19992C0.968094 0.147616 0.902353 0.105964 0.829476 0.0775011C0.756599 0.049038 0.678112 0.0343594 0.598795 0.0343594C0.519477 0.0343594 0.440989 0.049038 0.368112 0.0775011C0.295235 0.105964 0.229494 0.147616 0.174894 0.19992Z" fill="white"/>
</g>
<defs>
<clipPath id="clip0_253_580">
<rect width="6" height="12" fill="white" transform="matrix(0 1 -1 0 12 0)"/>
</clipPath>
</defs>
</svg>
