<svg width="60" height="61" viewBox="0 0 60 61" fill="none" xmlns="http://www.w3.org/2000/svg">
<rect width="60" height="61" rx="15" fill="#FFF5D9"/>
<g clip-path="url(#clip0_855_761)">
<path fill-rule="evenodd" clip-rule="evenodd" d="M35.3112 16.0751C32.5132 16.5689 30.2793 18.6363 29.5614 21.3963C28.54 25.3236 30.9174 29.2857 34.9073 30.3056C36.1065 30.6122 38.1629 30.5076 39.284 30.0831C42.594 28.8297 44.5529 25.6217 44.0404 22.2935C43.5745 19.2674 41.718 17.0967 38.8833 16.2631C38.0463 16.0171 36.1929 15.9195 35.3112 16.0751ZM36.3554 18.3705C36.2423 18.4934 36.1498 18.7676 36.1498 18.9796C36.1498 19.3006 36.0808 19.3938 35.7401 19.5338C35.203 19.7545 34.699 20.3563 34.5278 20.9813C34.3639 21.5799 34.5317 22.3932 34.9335 22.9479C35.2241 23.3493 36.0367 23.7603 36.5478 23.7643C37.0522 23.7683 37.514 24.0187 37.7122 24.3956C37.9425 24.8334 37.9355 25.0573 37.6782 25.4856C37.399 25.9503 36.9465 26.0883 35.7007 26.0883C34.8064 26.0883 34.6502 26.12 34.5389 26.3246C34.2351 26.8828 34.5661 27.1878 35.4752 27.1878C36.1165 27.1878 36.1498 27.2033 36.1498 27.5013C36.1498 27.9657 36.3702 28.2874 36.6884 28.2874C37.0868 28.2874 37.2675 28.0619 37.2713 27.5605C37.2741 27.174 37.329 27.1019 37.7756 26.8994C38.4253 26.6047 38.9027 25.8973 38.979 25.1159C39.0946 23.932 38.2096 22.8535 36.9974 22.7013C36.2066 22.6018 35.8177 22.3647 35.656 21.883C35.5406 21.5392 35.5505 21.3918 35.7091 21.0903C35.9863 20.5633 36.2472 20.4683 37.4186 20.4683C38.1558 20.4683 38.535 20.4133 38.7313 20.2781C39.361 19.8445 38.8568 19.2466 37.8616 19.2466H37.268V18.8233C37.268 18.5298 37.1943 18.3612 37.0277 18.2735C36.695 18.0984 36.5921 18.1133 36.3554 18.3705ZM27.625 30.6288C26.5891 30.7368 26.1816 30.8878 23.5585 32.1357C21.6417 33.0476 21.5928 33.0804 21.6737 33.3974C21.7194 33.5764 21.9465 34.7677 22.1784 36.0448C22.4102 37.3218 22.7394 39.1285 22.9097 40.0597C23.107 41.1386 23.1923 41.9475 23.1445 42.2894C23.0791 42.7595 23.0988 42.8261 23.3041 42.8268C23.5167 42.8275 28.0472 43.3443 32.4844 43.8741C34.4894 44.1134 35.5124 44.0234 36.7118 43.5018C37.6486 43.0945 45.7885 38.1318 46.3106 37.6497C47.921 36.1629 46.4896 33.2862 44.2872 33.5831C43.9791 33.6246 42.4189 34.1406 40.8201 34.7297L37.913 35.8009L37.8324 36.3991C37.6774 37.5477 36.8322 38.6919 35.7227 39.2545C35.2134 39.5128 34.9164 39.5745 34.1618 39.5786C33.3617 39.583 32.899 39.4814 30.8919 38.8602C28.5475 38.1348 28.2257 37.9613 28.3992 37.5169C28.5817 37.0491 28.8659 37.073 31.1362 37.7455C33.9467 38.578 34.0123 38.5905 34.7028 38.4196C36.0817 38.0781 36.9651 36.6783 36.6408 35.3489C36.4123 34.4125 35.893 33.9525 33.3785 32.4603C30.4073 30.6969 29.5602 30.4272 27.625 30.6288ZM17.3608 32.7323C15.7791 33.0257 15.4035 33.2333 15.073 33.9959C14.9173 34.3552 14.9683 34.7542 15.6482 38.5069C16.0584 40.7711 16.394 42.6673 16.394 42.7205C16.394 42.7739 16.5645 43.0085 16.773 43.2418C17.382 43.9238 17.7125 43.9712 19.5455 43.6395C20.9592 43.3836 21.1772 43.3104 21.5153 42.9781C22.1077 42.3955 22.0939 41.9149 21.3706 37.939C20.5179 33.2508 20.5493 33.3693 20.0433 32.9324C19.8082 32.7295 19.5106 32.5634 19.3819 32.5634C19.2532 32.5634 19.0734 32.5407 18.9824 32.5129C18.8913 32.485 18.1616 32.5837 17.3608 32.7323Z" fill="#FFBB38"/>
</g>
<defs>
<clipPath id="clip0_855_761">
<rect width="32.3502" height="32.3502" fill="white" transform="translate(14.5527 14.0769)"/>
</clipPath>
</defs>
</svg>
